  0
SECTION
  2
HEADER
  9
$ACADVER
  1
AC1009
  9
$FILLMODE
 70
 0
  9
$SPLFRAME
 70
 1
  9
$EXTMIN
 10
0
 20
0
 30
0.0
  9
$EXTMAX
 10
41.6667
 20
41.6667
 30
0.0
  0
ENDSEC
  0
SECTION
  2
TABLES
  0
TABLE
  2
LAYER
 70
1
  0
LAYER
  2
0
 70
     0
 62
     7
  6
CONTINUOUS
  0
ENDTAB
  0
ENDSEC
  0
SECTION
  2
ENTITIES
  0
POLYLINE
  8
0
 62
     142
 66
     1
 10
0
 20
0
 30
0.0
 70
     1
 40
0
 41
0
  0
VERTEX
  8
0
 10
0.444282
 20
0.246962
 30
0.0
 40
0
 41
0
  0
VERTEX
  8
0
 10
0.444282
 20
0.0282118
 30
0.0
 40
0
 41
0
  0
VERTEX
  8
0
 10
0.0141601
 20
0.0282118
 30
0.0
 40
0
 41
0
  0
VERTEX
  8
0
 10
0.0141601
 20
0.246962
 30
0.0
 40
0
 41
0
  0
VERTEX
  8
0
 10
0.444282
 20
0.246962
 30
0.0
 40
0
 41
0
  0
SEQEND
 8
0
  0
POLYLINE
  8
0
 62
     142
 66
     1
 10
0
 20
0
 30
0.0
 70
     1
 40
0
 41
0
  0
VERTEX
  8
0
 10
0.458333
 20
0.261231
 30
0.0
 40
0
 41
0
  0
VERTEX
  8
0
 10
0
 20
0.261231
 30
0.0
 40
0
 41
0
  0
VERTEX
  8
0
 10
0
 20
0.0136719
 30
0.0
 40
0
 41
0
  0
VERTEX
  8
0
 10
0.458333
 20
0.0136719
 30
0.0
 40
0
 41
0
  0
VERTEX
  8
0
 10
0.458333
 20
0.261231
 30
0.0
 40
0
 41
0
  0
SEQEND
 8
0
  0
POLYLINE
  8
0
 62
     142
 66
     1
 10
0
 20
0
 30
0.0
 70
     1
 40
0
 41
0
  0
VERTEX
  8
0
 10
0.102214
 20
0.183865
 30
0.0
 40
0
 41
0
  0
VERTEX
  8
0
 10
0.0535482
 20
0.183865
 30
0.0
 40
0
 41
0
  0
VERTEX
  8
0
 10
0.0535482
 20
0.214356
 30
0.0
 40
0
 41
0
  0
VERTEX
  8
0
 10
0.183757
 20
0.214356
 30
0.0
 40
0
 41
0
  0
VERTEX
  8
0
 10
0.183757
 20
0.183865
 30
0.0
 40
0
 41
0
  0
VERTEX
  8
0
 10
0.135417
 20
0.183865
 30
0.0
 40
0
 41
0
  0
VERTEX
  8
0
 10
0.135417
 20
0.0615776
 30
0.0
 40
0
 41
0
  0
VERTEX
  8
0
 10
0.102214
 20
0.0615776
 30
0.0
 40
0
 41
0
  0
VERTEX
  8
0
 10
0.102214
 20
0.183865
 30
0.0
 40
0
 41
0
  0
SEQEND
 8
0
  0
POLYLINE
  8
0
 62
     142
 66
     1
 10
0
 20
0
 30
0.0
 70
     1
 40
0
 41
0
  0
VERTEX
  8
0
 10
0.244683
 20
0.153863
 30
0.0
 40
0
 41
0
  0
VERTEX
  8
0
 10
0.244683
 20
0.0615776
 30
0.0
 40
0
 41
0
  0
VERTEX
  8
0
 10
0.21186
 20
0.0615776
 30
0.0
 40
0
 41
0
  0
VERTEX
  8
0
 10
0.21186
 20
0.214356
 30
0.0
 40
0
 41
0
  0
VERTEX
  8
0
 10
0.244792
 20
0.214356
 30
0.0
 40
0
 41
0
  0
VERTEX
  8
0
 10
0.297418
 20
0.116537
 30
0.0
 40
0
 41
0
  0
VERTEX
  8
0
 10
0.350911
 20
0.214356
 30
0.0
 40
0
 41
0
  0
VERTEX
  8
0
 10
0.383029
 20
0.214356
 30
0.0
 40
0
 41
0
  0
VERTEX
  8
0
 10
0.383029
 20
0.0615776
 30
0.0
 40
0
 41
0
  0
VERTEX
  8
0
 10
0.350206
 20
0.0615776
 30
0.0
 40
0
 41
0
  0
VERTEX
  8
0
 10
0.350206
 20
0.153537
 30
0.0
 40
0
 41
0
  0
VERTEX
  8
0
 10
0.298122
 20
0.0568576
 30
0.0
 40
0
 41
0
  0
VERTEX
  8
0
 10
0.244683
 20
0.153863
 30
0.0
 40
0
 41
0
  0
SEQEND
 8
0
  0
POLYLINE
  8
0
 62
     142
 66
     1
 10
0
 20
0
 30
0.0
 70
     1
 40
0
 41
0
  0
VERTEX
  8
0
 10
0.888835
 20
0.170628
 30
0.0
 40
0
 41
0
  0
VERTEX
  8
0
 10
0.888835
 20
0.173178
 30
0.0
 40
0
 41
0
  0
VERTEX
  8
0
 10
0.883518
 20
0.180826
 30
0.0
 40
0
 41
0
  0
VERTEX
  8
0
 10
0.871853
 20
0.183974
 30
0.0
 40
0
 41
0
  0
VERTEX
  8
0
 10
0.868001
 20
0.183974
 30
0.0
 40
0
 41
0
  0
VERTEX
  8
0
 10
0.830946
 20
0.183974
 30
0.0
 40
0
 41
0
  0
VERTEX
  8
0
 10
0.830946
 20
0.157064
 30
0.0
 40
0
 41
0
  0
VERTEX
  8
0
 10
0.868653
 20
0.157064
 30
0.0
 40
0
 41
0
  0
VERTEX
  8
0
 10
0.872342
 20
0.157064
 30
0.0
 40
0
 41
0
  0
VERTEX
  8
0
 10
0.883464
 20
0.160536
 30
0.0
 40
0
 41
0
  0
VERTEX
  8
0
 10
0.888835
 20
0.168132
 30
0.0
 40
0
 41
0
  0
VERTEX
  8
0
 10
0.888835
 20
0.170628
 30
0.0
 40
0
 41
0
  0
SEQEND
 8
0
  0
POLYLINE
  8
0
 62
     142
 66
     1
 10
0
 20
0
 30
0.0
 70
     1
 40
0
 41
0
  0
VERTEX
  8
0
 10
0.876139
 20
0.127604
 30
0.0
 40
0
 41
0
  0
VERTEX
  8
0
 10
0.830946
 20
0.127604
 30
0.0
 40
0
 41
0
  0
VERTEX
  8
0
 10
0.830946
 20
0.0920682
 30
0.0
 40
0
 41
0
  0
VERTEX
  8
0
 10
0.876139
 20
0.0920682
 30
0.0
 40
0
 41
0
  0
VERTEX
  8
0
 10
0.879992
 20
0.0920682
 30
0.0
 40
0
 41
0
  0
VERTEX
  8
0
 10
0.891547
 20
0.0964085
 30
0.0
 40
0
 41
0
  0
VERTEX
  8
0
 10
0.896972
 20
0.106391
 30
0.0
 40
0
 41
0
  0
VERTEX
  8
0
 10
0.896972
 20
0.109701
 30
0.0
 40
0
 41
0
  0
VERTEX
  8
0
 10
0.896972
 20
0.113064
 30
0.0
 40
0
 41
0
  0
VERTEX
  8
0
 10
0.891547
 20
0.123155
 30
0.0
 40
0
 41
0
  0
VERTEX
  8
0
 10
0.879992
 20
0.127604
 30
0.0
 40
0
 41
0
  0
VERTEX
  8
0
 10
0.876139
 20
0.127604
 30
0.0
 40
0
 41
0
  0
SEQEND
 8
0
  0
POLYLINE
  8
0
 62
     142
 66
     1
 10
0
 20
0
 30
0.0
 70
     1
 40
0
 41
0
  0
VERTEX
  8
0
 10
0.544487
 20
0.184462
 30
0.0
 40
0
 41
0
  0
VERTEX
  8
0
 10
0.506565
 20
0.184462
 30
0.0
 40
0
 41
0
  0
VERTEX
  8
0
 10
0.506565
 20
0.142199
 30
0.0
 40
0
 41
0
  0
VERTEX
  8
0
 10
0.544487
 20
0.142199
 30
0.0
 40
0
 41
0
  0
VERTEX
  8
0
 10
0.548449
 20
0.142199
 30
0.0
 40
0
 41
0
  0
VERTEX
  8
0
 10
0.560331
 20
0.148817
 30
0.0
 40
0
 41
0
  0
VERTEX
  8
0
 10
0.565647
 20
0.163357
 30
0.0
 40
0
 41
0
  0
VERTEX
  8
0
 10
0.560331
 20
0.177897
 30
0.0
 40
0
 41
0
  0
VERTEX
  8
0
 10
0.548449
 20
0.184462
 30
0.0
 40
0
 41
0
  0
VERTEX
  8
0
 10
0.544487
 20
0.184462
 30
0.0
 40
0
 41
0
  0
SEQEND
 8
0
  0
POLYLINE
  8
0
 62
     142
 66
     1
 10
0
 20
0
 30
0.0
 70
     1
 40
0
 41
0
  0
VERTEX
  8
0
 10
0.426378
 20
0.261231
 30
0.0
 40
0
 41
0
  0
VERTEX
  8
0
 10
0.426378
 20
0.0136719
 30
0.0
 40
0
 41
0
  0
VERTEX
  8
0
 10
0.969401
 20
0.0136719
 30
0.0
 40
0
 41
0
  0
VERTEX
  8
0
 10
0.969401
 20
0.261231
 30
0.0
 40
0
 41
0
  0
VERTEX
  8
0
 10
0.426378
 20
0.261231
 30
0.0
 40
0
 41
0
  0
SEQEND
 8
0
  0
POLYLINE
  8
0
 62
     142
 66
     1
 10
0
 20
0
 30
0.0
 70
     1
 40
0
 41
0
  0
VERTEX
  8
0
 10
0.546061
 20
0.112413
 30
0.0
 40
0
 41
0
  0
VERTEX
  8
0
 10
0.506565
 20
0.112413
 30
0.0
 40
0
 41
0
  0
VERTEX
  8
0
 10
0.506565
 20
0.0615776
 30
0.0
 40
0
 41
0
  0
VERTEX
  8
0
 10
0.473036
 20
0.0615776
 30
0.0
 40
0
 41
0
  0
VERTEX
  8
0
 10
0.473036
 20
0.214356
 30
0.0
 40
0
 41
0
  0
VERTEX
  8
0
 10
0.544162
 20
0.214356
 30
0.0
 40
0
 41
0
  0
VERTEX
  8
0
 10
0.550131
 20
0.214356
 30
0.0
 40
0
 41
0
  0
VERTEX
  8
0
 10
0.568033
 20
0.210667
 30
0.0
 40
0
 41
0
  0
VERTEX
  8
0
 10
0.5861
 20
0.200196
 30
0.0
 40
0
 41
0
  0
VERTEX
  8
0
 10
0.597547
 20
0.184082
 30
0.0
 40
0
 41
0
  0
VERTEX
  8
0
 10
0.601563
 20
0.168565
 30
0.0
 40
0
 41
0
  0
VERTEX
  8
0
 10
0.601563
 20
0.163357
 30
0.0
 40
0
 41
0
  0
VERTEX
  8
0
 10
0.601563
 20
0.158203
 30
0.0
 40
0
 41
0
  0
VERTEX
  8
0
 10
0.597874
 20
0.142686
 30
0.0
 40
0
 41
0
  0
VERTEX
  8
0
 10
0.587131
 20
0.126573
 30
0.0
 40
0
 41
0
  0
VERTEX
  8
0
 10
0.569715
 20
0.116157
 30
0.0
 40
0
 41
0
  0
VERTEX
  8
0
 10
0.551975
 20
0.112413
 30
0.0
 40
0
 41
0
  0
VERTEX
  8
0
 10
0.546061
 20
0.112413
 30
0.0
 40
0
 41
0
  0
SEQEND
 8
0
  0
POLYLINE
  8
0
 62
     142
 66
     1
 10
0
 20
0
 30
0.0
 70
     1
 40
0
 41
0
  0
VERTEX
  8
0
 10
0.706543
 20
0.0585394
 30
0.0
 40
0
 41
0
  0
VERTEX
  8
0
 10
0.698947
 20
0.0585394
 30
0.0
 40
0
 41
0
  0
VERTEX
  8
0
 10
0.676161
 20
0.0646158
 30
0.0
 40
0
 41
0
  0
VERTEX
  8
0
 10
0.654135
 20
0.078125
 30
0.0
 40
0
 41
0
  0
VERTEX
  8
0
 10
0.650444
 20
0.0818143
 30
0.0
 40
0
 41
0
  0
VERTEX
  8
0
 10
0.646701
 20
0.0855578
 30
0.0
 40
0
 41
0
  0
VERTEX
  8
0
 10
0.633192
 20
0.107585
 30
0.0
 40
0
 41
0
  0
VERTEX
  8
0
 10
0.627171
 20
0.130371
 30
0.0
 40
0
 41
0
  0
VERTEX
  8
0
 10
0.627171
 20
0.137912
 30
0.0
 40
0
 41
0
  0
VERTEX
  8
0
 10
0.627171
 20
0.145508
 30
0.0
 40
0
 41
0
  0
VERTEX
  8
0
 10
0.633192
 20
0.168294
 30
0.0
 40
0
 41
0
  0
VERTEX
  8
0
 10
0.646701
 20
0.190375
 30
0.0
 40
0
 41
0
  0
VERTEX
  8
0
 10
0.650444
 20
0.194065
 30
0.0
 40
0
 41
0
  0
VERTEX
  8
0
 10
0.654135
 20
0.197808
 30
0.0
 40
0
 41
0
  0
VERTEX
  8
0
 10
0.676161
 20
0.211263
 30
0.0
 40
0
 41
0
  0
VERTEX
  8
0
 10
0.698947
 20
0.217285
 30
0.0
 40
0
 41
0
  0
VERTEX
  8
0
 10
0.706543
 20
0.217285
 30
0.0
 40
0
 41
0
  0
VERTEX
  8
0
 10
0.712728
 20
0.217449
 30
0.0
 40
0
 41
0
  0
VERTEX
  8
0
 10
0.741971
 20
0.210015
 30
0.0
 40
0
 41
0
  0
VERTEX
  8
0
 10
0.766818
 20
0.192925
 30
0.0
 40
0
 41
0
  0
VERTEX
  8
0
 10
0.770833
 20
0.188206
 30
0.0
 40
0
 41
0
  0
VERTEX
  8
0
 10
0.745117
 20
0.168132
 30
0.0
 40
0
 41
0
  0
VERTEX
  8
0
 10
0.742731
 20
0.171007
 30
0.0
 40
0
 41
0
  0
VERTEX
  8
0
 10
0.727974
 20
0.181424
 30
0.0
 40
0
 41
0
  0
VERTEX
  8
0
 10
0.710449
 20
0.185981
 30
0.0
 40
0
 41
0
  0
VERTEX
  8
0
 10
0.70676
 20
0.185926
 30
0.0
 40
0
 41
0
  0
VERTEX
  8
0
 10
0.701932
 20
0.186143
 30
0.0
 40
0
 41
0
  0
VERTEX
  8
0
 10
0.687283
 20
0.182835
 30
0.0
 40
0
 41
0
  0
VERTEX
  8
0
 10
0.671278
 20
0.172689
 30
0.0
 40
0
 41
0
  0
VERTEX
  8
0
 10
0.660374
 20
0.157172
 30
0.0
 40
0
 41
0
  0
VERTEX
  8
0
 10
0.656413
 20
0.142686
 30
0.0
 40
0
 41
0
  0
VERTEX
  8
0
 10
0.656413
 20
0.137858
 30
0.0
 40
0
 41
0
  0
VERTEX
  8
0
 10
0.656413
 20
0.133084
 30
0.0
 40
0
 41
0
  0
VERTEX
  8
0
 10
0.660374
 20
0.118598
 30
0.0
 40
0
 41
0
  0
VERTEX
  8
0
 10
0.671278
 20
0.103082
 30
0.0
 40
0
 41
0
  0
VERTEX
  8
0
 10
0.687283
 20
0.0929363
 30
0.0
 40
0
 41
0
  0
VERTEX
  8
0
 10
0.701932
 20
0.0895725
 30
0.0
 40
0
 41
0
  0
VERTEX
  8
0
 10
0.70676
 20
0.0897894
 30
0.0
 40
0
 41
0
  0
VERTEX
  8
0
 10
0.710504
 20
0.0897353
 30
0.0
 40
0
 41
0
  0
VERTEX
  8
0
 10
0.728244
 20
0.0944553
 30
0.0
 40
0
 41
0
  0
VERTEX
  8
0
 10
0.743164
 20
0.105198
 30
0.0
 40
0
 41
0
  0
VERTEX
  8
0
 10
0.745497
 20
0.108127
 30
0.0
 40
0
 41
0
  0
VERTEX
  8
0
 10
0.771647
 20
0.0884332
 30
0.0
 40
0
 41
0
  0
VERTEX
  8
0
 10
0.767632
 20
0.0836046
 30
0.0
 40
0
 41
0
  0
VERTEX
  8
0
 10
0.742512
 20
0.0660807
 30
0.0
 40
0
 41
0
  0
VERTEX
  8
0
 10
0.712782
 20
0.058431
 30
0.0
 40
0
 41
0
  0
VERTEX
  8
0
 10
0.706543
 20
0.0585394
 30
0.0
 40
0
 41
0
  0
SEQEND
 8
0
  0
POLYLINE
  8
0
 62
     142
 66
     1
 10
0
 20
0
 30
0.0
 70
     1
 40
0
 41
0
  0
VERTEX
  8
0
 10
0.877279
 20
0.0615776
 30
0.0
 40
0
 41
0
  0
VERTEX
  8
0
 10
0.798557
 20
0.0615776
 30
0.0
 40
0
 41
0
  0
VERTEX
  8
0
 10
0.798557
 20
0.214356
 30
0.0
 40
0
 41
0
  0
VERTEX
  8
0
 10
0.869249
 20
0.214356
 30
0.0
 40
0
 41
0
  0
VERTEX
  8
0
 10
0.878851
 20
0.214356
 30
0.0
 40
0
 41
0
  0
VERTEX
  8
0
 10
0.907715
 20
0.204156
 30
0.0
 40
0
 41
0
  0
VERTEX
  8
0
 10
0.921332
 20
0.182183
 30
0.0
 40
0
 41
0
  0
VERTEX
  8
0
 10
0.921332
 20
0.174804
 30
0.0
 40
0
 41
0
  0
VERTEX
  8
0
 10
0.921658
 20
0.17155
 30
0.0
 40
0
 41
0
  0
VERTEX
  8
0
 10
0.917426
 20
0.156412
 30
0.0
 40
0
 41
0
  0
VERTEX
  8
0
 10
0.906575
 20
0.144965
 30
0.0
 40
0
 41
0
  0
VERTEX
  8
0
 10
0.903646
 20
0.143554
 30
0.0
 40
0
 41
0
  0
VERTEX
  8
0
 10
0.907824
 20
0.142199
 30
0.0
 40
0
 41
0
  0
VERTEX
  8
0
 10
0.923503
 20
0.128418
 30
0.0
 40
0
 41
0
  0
VERTEX
  8
0
 10
0.930122
 20
0.108561
 30
0.0
 40
0
 41
0
  0
VERTEX
  8
0
 10
0.929796
 20
0.104167
 30
0.0
 40
0
 41
0
  0
VERTEX
  8
0
 10
0.929796
 20
0.0961914
 30
0.0
 40
0
 41
0
  0
VERTEX
  8
0
 10
0.916396
 20
0.0722657
 30
0.0
 40
0
 41
0
  0
VERTEX
  8
0
 10
0.887044
 20
0.0615776
 30
0.0
 40
0
 41
0
  0
VERTEX
  8
0
 10
0.877279
 20
0.0615776
 30
0.0
 40
0
 41
0
  0
SEQEND
 8
0
  0
POLYLINE
  8
0
 62
     142
 66
     1
 10
0
 20
0
 30
0.0
 70
     1
 40
0
 41
0
  0
VERTEX
  8
0
 10
0.888835
 20
0.170628
 30
0.0
 40
0
 41
0
  0
VERTEX
  8
0
 10
0.888835
 20
0.173178
 30
0.0
 40
0
 41
0
  0
VERTEX
  8
0
 10
0.883518
 20
0.180826
 30
0.0
 40
0
 41
0
  0
VERTEX
  8
0
 10
0.871853
 20
0.183974
 30
0.0
 40
0
 41
0
  0
VERTEX
  8
0
 10
0.868001
 20
0.183974
 30
0.0
 40
0
 41
0
  0
VERTEX
  8
0
 10
0.830946
 20
0.183974
 30
0.0
 40
0
 41
0
  0
VERTEX
  8
0
 10
0.830946
 20
0.157064
 30
0.0
 40
0
 41
0
  0
VERTEX
  8
0
 10
0.868653
 20
0.157064
 30
0.0
 40
0
 41
0
  0
VERTEX
  8
0
 10
0.872342
 20
0.157064
 30
0.0
 40
0
 41
0
  0
VERTEX
  8
0
 10
0.883464
 20
0.160536
 30
0.0
 40
0
 41
0
  0
VERTEX
  8
0
 10
0.888835
 20
0.168132
 30
0.0
 40
0
 41
0
  0
VERTEX
  8
0
 10
0.888835
 20
0.170628
 30
0.0
 40
0
 41
0
  0
SEQEND
 8
0
  0
POLYLINE
  8
0
 62
     142
 66
     1
 10
0
 20
0
 30
0.0
 70
     1
 40
0
 41
0
  0
VERTEX
  8
0
 10
0.876139
 20
0.127604
 30
0.0
 40
0
 41
0
  0
VERTEX
  8
0
 10
0.830946
 20
0.127604
 30
0.0
 40
0
 41
0
  0
VERTEX
  8
0
 10
0.830946
 20
0.0920682
 30
0.0
 40
0
 41
0
  0
VERTEX
  8
0
 10
0.876139
 20
0.0920682
 30
0.0
 40
0
 41
0
  0
VERTEX
  8
0
 10
0.879992
 20
0.0920682
 30
0.0
 40
0
 41
0
  0
VERTEX
  8
0
 10
0.891547
 20
0.0964085
 30
0.0
 40
0
 41
0
  0
VERTEX
  8
0
 10
0.896972
 20
0.106391
 30
0.0
 40
0
 41
0
  0
VERTEX
  8
0
 10
0.896972
 20
0.109701
 30
0.0
 40
0
 41
0
  0
VERTEX
  8
0
 10
0.896972
 20
0.113064
 30
0.0
 40
0
 41
0
  0
VERTEX
  8
0
 10
0.891547
 20
0.123155
 30
0.0
 40
0
 41
0
  0
VERTEX
  8
0
 10
0.879992
 20
0.127604
 30
0.0
 40
0
 41
0
  0
VERTEX
  8
0
 10
0.876139
 20
0.127604
 30
0.0
 40
0
 41
0
  0
SEQEND
 8
0
  0
POLYLINE
  8
0
 62
     142
 66
     1
 10
0
 20
0
 30
0.0
 70
     1
 40
0
 41
0
  0
VERTEX
  8
0
 10
0.544487
 20
0.184462
 30
0.0
 40
0
 41
0
  0
VERTEX
  8
0
 10
0.506565
 20
0.184462
 30
0.0
 40
0
 41
0
  0
VERTEX
  8
0
 10
0.506565
 20
0.142199
 30
0.0
 40
0
 41
0
  0
VERTEX
  8
0
 10
0.544487
 20
0.142199
 30
0.0
 40
0
 41
0
  0
VERTEX
  8
0
 10
0.548449
 20
0.142199
 30
0.0
 40
0
 41
0
  0
VERTEX
  8
0
 10
0.560331
 20
0.148817
 30
0.0
 40
0
 41
0
  0
VERTEX
  8
0
 10
0.565647
 20
0.163357
 30
0.0
 40
0
 41
0
  0
VERTEX
  8
0
 10
0.560331
 20
0.177897
 30
0.0
 40
0
 41
0
  0
VERTEX
  8
0
 10
0.548449
 20
0.184462
 30
0.0
 40
0
 41
0
  0
VERTEX
  8
0
 10
0.544487
 20
0.184462
 30
0.0
 40
0
 41
0
  0
SEQEND
 8
0
  0
POLYLINE
  8
0
 62
     142
 66
     1
 10
0
 20
0
 30
0.0
 70
     1
 40
0
 41
0
  0
VERTEX
  8
0
 10
0.426378
 20
0.261231
 30
0.0
 40
0
 41
0
  0
VERTEX
  8
0
 10
0.426378
 20
0.0136719
 30
0.0
 40
0
 41
0
  0
VERTEX
  8
0
 10
0.969401
 20
0.0136719
 30
0.0
 40
0
 41
0
  0
VERTEX
  8
0
 10
0.969401
 20
0.261231
 30
0.0
 40
0
 41
0
  0
VERTEX
  8
0
 10
0.426378
 20
0.261231
 30
0.0
 40
0
 41
0
  0
SEQEND
 8
0
  0
POLYLINE
  8
0
 62
     142
 66
     1
 10
0
 20
0
 30
0.0
 70
     1
 40
0
 41
0
  0
VERTEX
  8
0
 10
0.546061
 20
0.112413
 30
0.0
 40
0
 41
0
  0
VERTEX
  8
0
 10
0.506565
 20
0.112413
 30
0.0
 40
0
 41
0
  0
VERTEX
  8
0
 10
0.506565
 20
0.0615776
 30
0.0
 40
0
 41
0
  0
VERTEX
  8
0
 10
0.473036
 20
0.0615776
 30
0.0
 40
0
 41
0
  0
VERTEX
  8
0
 10
0.473036
 20
0.214356
 30
0.0
 40
0
 41
0
  0
VERTEX
  8
0
 10
0.544162
 20
0.214356
 30
0.0
 40
0
 41
0
  0
VERTEX
  8
0
 10
0.550131
 20
0.214356
 30
0.0
 40
0
 41
0
  0
VERTEX
  8
0
 10
0.568033
 20
0.210667
 30
0.0
 40
0
 41
0
  0
VERTEX
  8
0
 10
0.5861
 20
0.200196
 30
0.0
 40
0
 41
0
  0
VERTEX
  8
0
 10
0.597547
 20
0.184082
 30
0.0
 40
0
 41
0
  0
VERTEX
  8
0
 10
0.601563
 20
0.168565
 30
0.0
 40
0
 41
0
  0
VERTEX
  8
0
 10
0.601563
 20
0.163357
 30
0.0
 40
0
 41
0
  0
VERTEX
  8
0
 10
0.601563
 20
0.158203
 30
0.0
 40
0
 41
0
  0
VERTEX
  8
0
 10
0.597874
 20
0.142686
 30
0.0
 40
0
 41
0
  0
VERTEX
  8
0
 10
0.587131
 20
0.126573
 30
0.0
 40
0
 41
0
  0
VERTEX
  8
0
 10
0.569715
 20
0.116157
 30
0.0
 40
0
 41
0
  0
VERTEX
  8
0
 10
0.551975
 20
0.112413
 30
0.0
 40
0
 41
0
  0
VERTEX
  8
0
 10
0.546061
 20
0.112413
 30
0.0
 40
0
 41
0
  0
SEQEND
 8
0
  0
POLYLINE
  8
0
 62
     142
 66
     1
 10
0
 20
0
 30
0.0
 70
     1
 40
0
 41
0
  0
VERTEX
  8
0
 10
0.706543
 20
0.0585394
 30
0.0
 40
0
 41
0
  0
VERTEX
  8
0
 10
0.698947
 20
0.0585394
 30
0.0
 40
0
 41
0
  0
VERTEX
  8
0
 10
0.676161
 20
0.0646158
 30
0.0
 40
0
 41
0
  0
VERTEX
  8
0
 10
0.654135
 20
0.078125
 30
0.0
 40
0
 41
0
  0
VERTEX
  8
0
 10
0.650444
 20
0.0818143
 30
0.0
 40
0
 41
0
  0
VERTEX
  8
0
 10
0.646701
 20
0.0855578
 30
0.0
 40
0
 41
0
  0
VERTEX
  8
0
 10
0.633192
 20
0.107585
 30
0.0
 40
0
 41
0
  0
VERTEX
  8
0
 10
0.627171
 20
0.130371
 30
0.0
 40
0
 41
0
  0
VERTEX
  8
0
 10
0.627171
 20
0.137912
 30
0.0
 40
0
 41
0
  0
VERTEX
  8
0
 10
0.627171
 20
0.145508
 30
0.0
 40
0
 41
0
  0
VERTEX
  8
0
 10
0.633192
 20
0.168294
 30
0.0
 40
0
 41
0
  0
VERTEX
  8
0
 10
0.646701
 20
0.190375
 30
0.0
 40
0
 41
0
  0
VERTEX
  8
0
 10
0.650444
 20
0.194065
 30
0.0
 40
0
 41
0
  0
VERTEX
  8
0
 10
0.654135
 20
0.197808
 30
0.0
 40
0
 41
0
  0
VERTEX
  8
0
 10
0.676161
 20
0.211263
 30
0.0
 40
0
 41
0
  0
VERTEX
  8
0
 10
0.698947
 20
0.217285
 30
0.0
 40
0
 41
0
  0
VERTEX
  8
0
 10
0.706543
 20
0.217285
 30
0.0
 40
0
 41
0
  0
VERTEX
  8
0
 10
0.712728
 20
0.217449
 30
0.0
 40
0
 41
0
  0
VERTEX
  8
0
 10
0.741971
 20
0.210015
 30
0.0
 40
0
 41
0
  0
VERTEX
  8
0
 10
0.766818
 20
0.192925
 30
0.0
 40
0
 41
0
  0
VERTEX
  8
0
 10
0.770833
 20
0.188206
 30
0.0
 40
0
 41
0
  0
VERTEX
  8
0
 10
0.745117
 20
0.168132
 30
0.0
 40
0
 41
0
  0
VERTEX
  8
0
 10
0.742731
 20
0.171007
 30
0.0
 40
0
 41
0
  0
VERTEX
  8
0
 10
0.727974
 20
0.181424
 30
0.0
 40
0
 41
0
  0
VERTEX
  8
0
 10
0.710449
 20
0.185981
 30
0.0
 40
0
 41
0
  0
VERTEX
  8
0
 10
0.70676
 20
0.185926
 30
0.0
 40
0
 41
0
  0
VERTEX
  8
0
 10
0.701932
 20
0.186143
 30
0.0
 40
0
 41
0
  0
VERTEX
  8
0
 10
0.687283
 20
0.182835
 30
0.0
 40
0
 41
0
  0
VERTEX
  8
0
 10
0.671278
 20
0.172689
 30
0.0
 40
0
 41
0
  0
VERTEX
  8
0
 10
0.660374
 20
0.157172
 30
0.0
 40
0
 41
0
  0
VERTEX
  8
0
 10
0.656413
 20
0.142686
 30
0.0
 40
0
 41
0
  0
VERTEX
  8
0
 10
0.656413
 20
0.137858
 30
0.0
 40
0
 41
0
  0
VERTEX
  8
0
 10
0.656413
 20
0.133084
 30
0.0
 40
0
 41
0
  0
VERTEX
  8
0
 10
0.660374
 20
0.118598
 30
0.0
 40
0
 41
0
  0
VERTEX
  8
0
 10
0.671278
 20
0.103082
 30
0.0
 40
0
 41
0
  0
VERTEX
  8
0
 10
0.687283
 20
0.0929363
 30
0.0
 40
0
 41
0
  0
VERTEX
  8
0
 10
0.701932
 20
0.0895725
 30
0.0
 40
0
 41
0
  0
VERTEX
  8
0
 10
0.70676
 20
0.0897894
 30
0.0
 40
0
 41
0
  0
VERTEX
  8
0
 10
0.710504
 20
0.0897353
 30
0.0
 40
0
 41
0
  0
VERTEX
  8
0
 10
0.728244
 20
0.0944553
 30
0.0
 40
0
 41
0
  0
VERTEX
  8
0
 10
0.743164
 20
0.105198
 30
0.0
 40
0
 41
0
  0
VERTEX
  8
0
 10
0.745497
 20
0.108127
 30
0.0
 40
0
 41
0
  0
VERTEX
  8
0
 10
0.771647
 20
0.0884332
 30
0.0
 40
0
 41
0
  0
VERTEX
  8
0
 10
0.767632
 20
0.0836046
 30
0.0
 40
0
 41
0
  0
VERTEX
  8
0
 10
0.742512
 20
0.0660807
 30
0.0
 40
0
 41
0
  0
VERTEX
  8
0
 10
0.712782
 20
0.058431
 30
0.0
 40
0
 41
0
  0
VERTEX
  8
0
 10
0.706543
 20
0.0585394
 30
0.0
 40
0
 41
0
  0
SEQEND
 8
0
  0
POLYLINE
  8
0
 62
     142
 66
     1
 10
0
 20
0
 30
0.0
 70
     1
 40
0
 41
0
  0
VERTEX
  8
0
 10
0.877279
 20
0.0615776
 30
0.0
 40
0
 41
0
  0
VERTEX
  8
0
 10
0.798557
 20
0.0615776
 30
0.0
 40
0
 41
0
  0
VERTEX
  8
0
 10
0.798557
 20
0.214356
 30
0.0
 40
0
 41
0
  0
VERTEX
  8
0
 10
0.869249
 20
0.214356
 30
0.0
 40
0
 41
0
  0
VERTEX
  8
0
 10
0.878851
 20
0.214356
 30
0.0
 40
0
 41
0
  0
VERTEX
  8
0
 10
0.907715
 20
0.204156
 30
0.0
 40
0
 41
0
  0
VERTEX
  8
0
 10
0.921332
 20
0.182183
 30
0.0
 40
0
 41
0
  0
VERTEX
  8
0
 10
0.921332
 20
0.174804
 30
0.0
 40
0
 41
0
  0
VERTEX
  8
0
 10
0.921658
 20
0.17155
 30
0.0
 40
0
 41
0
  0
VERTEX
  8
0
 10
0.917426
 20
0.156412
 30
0.0
 40
0
 41
0
  0
VERTEX
  8
0
 10
0.906575
 20
0.144965
 30
0.0
 40
0
 41
0
  0
VERTEX
  8
0
 10
0.903646
 20
0.143554
 30
0.0
 40
0
 41
0
  0
VERTEX
  8
0
 10
0.907824
 20
0.142199
 30
0.0
 40
0
 41
0
  0
VERTEX
  8
0
 10
0.923503
 20
0.128418
 30
0.0
 40
0
 41
0
  0
VERTEX
  8
0
 10
0.930122
 20
0.108561
 30
0.0
 40
0
 41
0
  0
VERTEX
  8
0
 10
0.929796
 20
0.104167
 30
0.0
 40
0
 41
0
  0
VERTEX
  8
0
 10
0.929796
 20
0.0961914
 30
0.0
 40
0
 41
0
  0
VERTEX
  8
0
 10
0.916396
 20
0.0722657
 30
0.0
 40
0
 41
0
  0
VERTEX
  8
0
 10
0.887044
 20
0.0615776
 30
0.0
 40
0
 41
0
  0
VERTEX
  8
0
 10
0.877279
 20
0.0615776
 30
0.0
 40
0
 41
0
  0
SEQEND
 8
0
  0
POLYLINE
  8
0
 62
     142
 66
     1
 10
0
 20
0
 30
0.0
 70
     1
 40
0
 41
0
  0
VERTEX
  8
0
 10
0.615614
 20
0.821994
 30
0.0
 40
0
 41
0
  0
VERTEX
  8
0
 10
0.613986
 20
0.822049
 30
0.0
 40
0
 41
0
  0
VERTEX
  8
0
 10
0.607585
 20
0.818414
 30
0.0
 40
0
 41
0
  0
VERTEX
  8
0
 10
0.604926
 20
0.811524
 30
0.0
 40
0
 41
0
  0
VERTEX
  8
0
 10
0.605197
 20
0.809896
 30
0.0
 40
0
 41
0
  0
VERTEX
  8
0
 10
0.605251
 20
0.808322
 30
0.0
 40
0
 41
0
  0
VERTEX
  8
0
 10
0.609158
 20
0.801975
 30
0.0
 40
0
 41
0
  0
VERTEX
  8
0
 10
0.616103
 20
0.799263
 30
0.0
 40
0
 41
0
  0
VERTEX
  8
0
 10
0.617731
 20
0.799479
 30
0.0
 40
0
 41
0
  0
VERTEX
  8
0
 10
0.619303
 20
0.799696
 30
0.0
 40
0
 41
0
  0
VERTEX
  8
0
 10
0.625489
 20
0.803711
 30
0.0
 40
0
 41
0
  0
VERTEX
  8
0
 10
0.628256
 20
0.810601
 30
0.0
 40
0
 41
0
  0
VERTEX
  8
0
 10
0.628147
 20
0.812175
 30
0.0
 40
0
 41
0
  0
VERTEX
  8
0
 10
0.628039
 20
0.813803
 30
0.0
 40
0
 41
0
  0
VERTEX
  8
0
 10
0.624132
 20
0.820042
 30
0.0
 40
0
 41
0
  0
VERTEX
  8
0
 10
0.617188
 20
0.822319
 30
0.0
 40
0
 41
0
  0
VERTEX
  8
0
 10
0.615614
 20
0.821994
 30
0.0
 40
0
 41
0
  0
SEQEND
 8
0
  0
POLYLINE
  8
0
 62
     142
 66
     1
 10
0
 20
0
 30
0.0
 70
     1
 40
0
 41
0
  0
VERTEX
  8
0
 10
0.635417
 20
0.587728
 30
0.0
 40
0
 41
0
  0
VERTEX
  8
0
 10
0.635796
 20
0.589139
 30
0.0
 40
0
 41
0
  0
VERTEX
  8
0
 10
0.629775
 20
0.600369
 30
0.0
 40
0
 41
0
  0
VERTEX
  8
0
 10
0.628418
 20
0.600749
 30
0.0
 40
0
 41
0
  0
VERTEX
  8
0
 10
0.627007
 20
0.601183
 30
0.0
 40
0
 41
0
  0
VERTEX
  8
0
 10
0.615776
 20
0.595161
 30
0.0
 40
0
 41
0
  0
VERTEX
  8
0
 10
0.615397
 20
0.59375
 30
0.0
 40
0
 41
0
  0
VERTEX
  8
0
 10
0.614908
 20
0.592503
 30
0.0
 40
0
 41
0
  0
VERTEX
  8
0
 10
0.620008
 20
0.581976
 30
0.0
 40
0
 41
0
  0
VERTEX
  8
0
 10
0.621257
 20
0.581543
 30
0.0
 40
0
 41
0
  0
VERTEX
  8
0
 10
0.622612
 20
0.580783
 30
0.0
 40
0
 41
0
  0
VERTEX
  8
0
 10
0.629829
 20
0.581218
 30
0.0
 40
0
 41
0
  0
VERTEX
  8
0
 10
0.634983
 20
0.586208
 30
0.0
 40
0
 41
0
  0
VERTEX
  8
0
 10
0.635417
 20
0.587728
 30
0.0
 40
0
 41
0
  0
SEQEND
 8
0
  0
POLYLINE
  8
0
 62
     142
 66
     1
 10
0
 20
0
 30
0.0
 70
     1
 40
0
 41
0
  0
VERTEX
  8
0
 10
0.751031
 20
0.642415
 30
0.0
 40
0
 41
0
  0
VERTEX
  8
0
 10
0.750976
 20
0.643989
 30
0.0
 40
0
 41
0
  0
VERTEX
  8
0
 10
0.747612
 20
0.650444
 30
0.0
 40
0
 41
0
  0
VERTEX
  8
0
 10
0.741157
 20
0.653862
 30
0.0
 40
0
 41
0
  0
VERTEX
  8
0
 10
0.739583
 20
0.653862
 30
0.0
 40
0
 41
0
  0
VERTEX
  8
0
 10
0.737901
 20
0.654081
 30
0.0
 40
0
 41
0
  0
VERTEX
  8
0
 10
0.731065
 20
0.650988
 30
0.0
 40
0
 41
0
  0
VERTEX
  8
0
 10
0.727865
 20
0.644206
 30
0.0
 40
0
 41
0
  0
VERTEX
  8
0
 10
0.728028
 20
0.642524
 30
0.0
 40
0
 41
0
  0
VERTEX
  8
0
 10
0.727701
 20
0.64095
 30
0.0
 40
0
 41
0
  0
VERTEX
  8
0
 10
0.730414
 20
0.634278
 30
0.0
 40
0
 41
0
  0
VERTEX
  8
0
 10
0.736817
 20
0.631076
 30
0.0
 40
0
 41
0
  0
VERTEX
  8
0
 10
0.738444
 20
0.631239
 30
0.0
 40
0
 41
0
  0
VERTEX
  8
0
 10
0.740072
 20
0.631131
 30
0.0
 40
0
 41
0
  0
VERTEX
  8
0
 10
0.747125
 20
0.634115
 30
0.0
 40
0
 41
0
  0
VERTEX
  8
0
 10
0.750976
 20
0.640788
 30
0.0
 40
0
 41
0
  0
VERTEX
  8
0
 10
0.751031
 20
0.642415
 30
0.0
 40
0
 41
0
  0
SEQEND
 8
0
  0
POLYLINE
  8
0
 62
     142
 66
     1
 10
0
 20
0
 30
0.0
 70
     1
 40
0
 41
0
  0
VERTEX
  8
0
 10
0.752929
 20
0.780219
 30
0.0
 40
0
 41
0
  0
VERTEX
  8
0
 10
0.755262
 20
0.780111
 30
0.0
 40
0
 41
0
  0
VERTEX
  8
0
 10
0.765082
 20
0.784668
 30
0.0
 40
0
 41
0
  0
VERTEX
  8
0
 10
0.770182
 20
0.794217
 30
0.0
 40
0
 41
0
  0
VERTEX
  8
0
 10
0.770182
 20
0.79655
 30
0.0
 40
0
 41
0
  0
VERTEX
  8
0
 10
0.770074
 20
0.798936
 30
0.0
 40
0
 41
0
  0
VERTEX
  8
0
 10
0.764865
 20
0.808431
 30
0.0
 40
0
 41
0
  0
VERTEX
  8
0
 10
0.755154
 20
0.813206
 30
0.0
 40
0
 41
0
  0
VERTEX
  8
0
 10
0.752821
 20
0.813151
 30
0.0
 40
0
 41
0
  0
VERTEX
  8
0
 10
0.75076
 20
0.812989
 30
0.0
 40
0
 41
0
  0
VERTEX
  8
0
 10
0.742731
 20
0.807726
 30
0.0
 40
0
 41
0
  0
VERTEX
  8
0
 10
0.739312
 20
0.798828
 30
0.0
 40
0
 41
0
  0
VERTEX
  8
0
 10
0.739583
 20
0.796767
 30
0.0
 40
0
 41
0
  0
VERTEX
  8
0
 10
0.739367
 20
0.794706
 30
0.0
 40
0
 41
0
  0
VERTEX
  8
0
 10
0.742839
 20
0.785807
 30
0.0
 40
0
 41
0
  0
VERTEX
  8
0
 10
0.750868
 20
0.78049
 30
0.0
 40
0
 41
0
  0
VERTEX
  8
0
 10
0.752929
 20
0.780219
 30
0.0
 40
0
 41
0
  0
SEQEND
 8
0
  0
POLYLINE
  8
0
 62
     142
 66
     1
 10
0
 20
0
 30
0.0
 70
     1
 40
0
 41
0
  0
VERTEX
  8
0
 10
0.888672
 20
0.606554
 30
0.0
 40
0
 41
0
  0
VERTEX
  8
0
 10
0.886501
 20
0.607585
 30
0.0
 40
0
 41
0
  0
VERTEX
  8
0
 10
0.864692
 20
0.617512
 30
0.0
 40
0
 41
0
  0
VERTEX
  8
0
 10
0.862522
 20
0.618435
 30
0.0
 40
0
 41
0
  0
VERTEX
  8
0
 10
0.859267
 20
0.6199
 30
0.0
 40
0
 41
0
  0
VERTEX
  8
0
 10
0.843317
 20
0.625651
 30
0.0
 40
0
 41
0
  0
VERTEX
  8
0
 10
0.825956
 20
0.624511
 30
0.0
 40
0
 41
0
  0
VERTEX
  8
0
 10
0.821994
 20
0.622504
 30
0.0
 40
0
 41
0
  0
VERTEX
  8
0
 10
0.818956
 20
0.620985
 30
0.0
 40
0
 41
0
  0
VERTEX
  8
0
 10
0.803657
 20
0.623915
 30
0.0
 40
0
 41
0
  0
VERTEX
  8
0
 10
0.791992
 20
0.636664
 30
0.0
 40
0
 41
0
  0
VERTEX
  8
0
 10
0.790744
 20
0.639974
 30
0.0
 40
0
 41
0
  0
VERTEX
  8
0
 10
0.789497
 20
0.644368
 30
0.0
 40
0
 41
0
  0
VERTEX
  8
0
 10
0.792535
 20
0.659397
 30
0.0
 40
0
 41
0
  0
VERTEX
  8
0
 10
0.805826
 20
0.670953
 30
0.0
 40
0
 41
0
  0
VERTEX
  8
0
 10
0.82346
 20
0.671821
 30
0.0
 40
0
 41
0
  0
VERTEX
  8
0
 10
0.8361
 20
0.663086
 30
0.0
 40
0
 41
0
  0
VERTEX
  8
0
 10
0.838217
 20
0.659071
 30
0.0
 40
0
 41
0
  0
VERTEX
  8
0
 10
0.839356
 20
0.657172
 30
0.0
 40
0
 41
0
  0
VERTEX
  8
0
 10
0.843804
 20
0.647026
 30
0.0
 40
0
 41
0
  0
VERTEX
  8
0
 10
0.851129
 20
0.638564
 30
0.0
 40
0
 41
0
  0
VERTEX
  8
0
 10
0.853733
 20
0.637478
 30
0.0
 40
0
 41
0
  0
VERTEX
  8
0
 10
0.856282
 20
0.636447
 30
0.0
 40
0
 41
0
  0
VERTEX
  8
0
 10
0.884983
 20
0.623589
 30
0.0
 40
0
 41
0
  0
VERTEX
  8
0
 10
0.887804
 20
0.622396
 30
0.0
 40
0
 41
0
  0
VERTEX
  8
0
 10
0.887804
 20
0.623753
 30
0.0
 40
0
 41
0
  0
VERTEX
  8
0
 10
0.887044
 20
0.631401
 30
0.0
 40
0
 41
0
  0
VERTEX
  8
0
 10
0.876411
 20
0.667914
 30
0.0
 40
0
 41
0
  0
VERTEX
  8
0
 10
0.857206
 20
0.700737
 30
0.0
 40
0
 41
0
  0
VERTEX
  8
0
 10
0.852214
 20
0.706543
 30
0.0
 40
0
 41
0
  0
VERTEX
  8
0
 10
0.848307
 20
0.711262
 30
0.0
 40
0
 41
0
  0
VERTEX
  8
0
 10
0.848307
 20
0.717285
 30
0.0
 40
0
 41
0
  0
VERTEX
  8
0
 10
0.848469
 20
0.719239
 30
0.0
 40
0
 41
0
  0
VERTEX
  8
0
 10
0.848469
 20
0.738607
 30
0.0
 40
0
 41
0
  0
VERTEX
  8
0
 10
0.848307
 20
0.740506
 30
0.0
 40
0
 41
0
  0
VERTEX
  8
0
 10
0.847222
 20
0.752171
 30
0.0
 40
0
 41
0
  0
VERTEX
  8
0
 10
0.836372
 20
0.786296
 30
0.0
 40
0
 41
0
  0
VERTEX
  8
0
 10
0.811035
 20
0.825683
 30
0.0
 40
0
 41
0
  0
VERTEX
  8
0
 10
0.774306
 20
0.856338
 30
0.0
 40
0
 41
0
  0
VERTEX
  8
0
 10
0.740126
 20
0.872775
 30
0.0
 40
0
 41
0
  0
VERTEX
  8
0
 10
0.728136
 20
0.875922
 30
0.0
 40
0
 41
0
  0
VERTEX
  8
0
 10
0.723742
 20
0.877061
 30
0.0
 40
0
 41
0
  0
VERTEX
  8
0
 10
0.720703
 20
0.880533
 30
0.0
 40
0
 41
0
  0
VERTEX
  8
0
 10
0.717503
 20
0.884332
 30
0.0
 40
0
 41
0
  0
VERTEX
  8
0
 10
0.679363
 20
0.915636
 30
0.0
 40
0
 41
0
  0
VERTEX
  8
0
 10
0.675022
 20
0.918024
 30
0.0
 40
0
 41
0
  0
VERTEX
  8
0
 10
0.674588
 20
0.917643
 30
0.0
 40
0
 41
0
  0
VERTEX
  8
0
 10
0.670736
 20
0.913411
 30
0.0
 40
0
 41
0
  0
VERTEX
  8
0
 10
0.67041
 20
0.912924
 30
0.0
 40
0
 41
0
  0
VERTEX
  8
0
 10
0.668024
 20
0.909885
 30
0.0
 40
0
 41
0
  0
VERTEX
  8
0
 10
0.641982
 20
0.881185
 30
0.0
 40
0
 41
0
  0
VERTEX
  8
0
 10
0.63916
 20
0.878526
 30
0.0
 40
0
 41
0
  0
VERTEX
  8
0
 10
0.638237
 20
0.877658
 30
0.0
 40
0
 41
0
  0
VERTEX
  8
0
 10
0.629557
 20
0.868978
 30
0.0
 40
0
 41
0
  0
VERTEX
  8
0
 10
0.628743
 20
0.86811
 30
0.0
 40
0
 41
0
  0
VERTEX
  8
0
 10
0.626682
 20
0.865886
 30
0.0
 40
0
 41
0
  0
VERTEX
  8
0
 10
0.599989
 20
0.854275
 30
0.0
 40
0
 41
0
  0
VERTEX
  8
0
 10
0.597006
 20
0.854275
 30
0.0
 40
0
 41
0
  0
VERTEX
  8
0
 10
0.593858
 20
0.854221
 30
0.0
 40
0
 41
0
  0
VERTEX
  8
0
 10
0.562879
 20
0.852051
 30
0.0
 40
0
 41
0
  0
VERTEX
  8
0
 10
0.559787
 20
0.851671
 30
0.0
 40
0
 41
0
  0
VERTEX
  8
0
 10
0.547581
 20
0.850532
 30
0.0
 40
0
 41
0
  0
VERTEX
  8
0
 10
0.544976
 20
0.85064
 30
0.0
 40
0
 41
0
  0
VERTEX
  8
0
 10
0.522461
 20
0.840549
 30
0.0
 40
0
 41
0
  0
VERTEX
  8
0
 10
0.520833
 20
0.838542
 30
0.0
 40
0
 41
0
  0
VERTEX
  8
0
 10
0.519803
 20
0.837294
 30
0.0
 40
0
 41
0
  0
VERTEX
  8
0
 10
0.505806
 20
0.830024
 30
0.0
 40
0
 41
0
  0
VERTEX
  8
0
 10
0.504178
 20
0.829915
 30
0.0
 40
0
 41
0
  0
VERTEX
  8
0
 10
0.502821
 20
0.829915
 30
0.0
 40
0
 41
0
  0
VERTEX
  8
0
 10
0.501031
 20
0.829969
 30
0.0
 40
0
 41
0
  0
VERTEX
  8
0
 10
0.485189
 20
0.836643
 30
0.0
 40
0
 41
0
  0
VERTEX
  8
0
 10
0.483942
 20
0.83789
 30
0.0
 40
0
 41
0
  0
VERTEX
  8
0
 10
0.481662
 20
0.840278
 30
0.0
 40
0
 41
0
  0
VERTEX
  8
0
 10
0.4764
 20
0.854764
 30
0.0
 40
0
 41
0
  0
VERTEX
  8
0
 10
0.479546
 20
0.869846
 30
0.0
 40
0
 41
0
  0
VERTEX
  8
0
 10
0.481446
 20
0.872504
 30
0.0
 40
0
 41
0
  0
VERTEX
  8
0
 10
0.482585
 20
0.873969
 30
0.0
 40
0
 41
0
  0
VERTEX
  8
0
 10
0.498264
 20
0.882758
 30
0.0
 40
0
 41
0
  0
VERTEX
  8
0
 10
0.500108
 20
0.882921
 30
0.0
 40
0
 41
0
  0
VERTEX
  8
0
 10
0.501736
 20
0.883083
 30
0.0
 40
0
 41
0
  0
VERTEX
  8
0
 10
0.516764
 20
0.878039
 30
0.0
 40
0
 41
0
  0
VERTEX
  8
0
 10
0.518013
 20
0.876899
 30
0.0
 40
0
 41
0
  0
VERTEX
  8
0
 10
0.51964
 20
0.875543
 30
0.0
 40
0
 41
0
  0
VERTEX
  8
0
 10
0.539714
 20
0.869575
 30
0.0
 40
0
 41
0
  0
VERTEX
  8
0
 10
0.541883
 20
0.869792
 30
0.0
 40
0
 41
0
  0
VERTEX
  8
0
 10
0.546442
 20
0.869792
 30
0.0
 40
0
 41
0
  0
VERTEX
  8
0
 10
0.555012
 20
0.869792
 30
0.0
 40
0
 41
0
  0
VERTEX
  8
0
 10
0.577963
 20
0.87169
 30
0.0
 40
0
 41
0
  0
VERTEX
  8
0
 10
0.580838
 20
0.872071
 30
0.0
 40
0
 41
0
  0
VERTEX
  8
0
 10
0.582249
 20
0.872287
 30
0.0
 40
0
 41
0
  0
VERTEX
  8
0
 10
0.596951
 20
0.873861
 30
0.0
 40
0
 41
0
  0
VERTEX
  8
0
 10
0.598415
 20
0.873969
 30
0.0
 40
0
 41
0
  0
VERTEX
  8
0
 10
0.601779
 20
0.873969
 30
0.0
 40
0
 41
0
  0
VERTEX
  8
0
 10
0.611003
 20
0.877713
 30
0.0
 40
0
 41
0
  0
VERTEX
  8
0
 10
0.611979
 20
0.878418
 30
0.0
 40
0
 41
0
  0
VERTEX
  8
0
 10
0.61594
 20
0.881836
 30
0.0
 40
0
 41
0
  0
VERTEX
  8
0
 10
0.65191
 20
0.919976
 30
0.0
 40
0
 41
0
  0
VERTEX
  8
0
 10
0.655111
 20
0.924154
 30
0.0
 40
0
 41
0
  0
VERTEX
  8
0
 10
0.655382
 20
0.924587
 30
0.0
 40
0
 41
0
  0
VERTEX
  8
0
 10
0.65625
 20
0.926378
 30
0.0
 40
0
 41
0
  0
VERTEX
  8
0
 10
0.65625
 20
0.926378
 30
0.0
 40
0
 41
0
  0
VERTEX
  8
0
 10
0.655219
 20
0.927083
 30
0.0
 40
0
 41
0
  0
VERTEX
  8
0
 10
0.643989
 20
0.931369
 30
0.0
 40
0
 41
0
  0
VERTEX
  8
0
 10
0.585667
 20
0.939236
 30
0.0
 40
0
 41
0
  0
VERTEX
  8
0
 10
0.527669
 20
0.92909
 30
0.0
 40
0
 41
0
  0
VERTEX
  8
0
 10
0.516656
 20
0.924371
 30
0.0
 40
0
 41
0
  0
VERTEX
  8
0
 10
0.510417
 20
0.921875
 30
0.0
 40
0
 41
0
  0
VERTEX
  8
0
 10
0.504178
 20
0.925131
 30
0.0
 40
0
 41
0
  0
VERTEX
  8
0
 10
0.492785
 20
0.93099
 30
0.0
 40
0
 41
0
  0
VERTEX
  8
0
 10
0.431694
 20
0.944988
 30
0.0
 40
0
 41
0
  0
VERTEX
  8
0
 10
0.369413
 20
0.938531
 30
0.0
 40
0
 41
0
  0
VERTEX
  8
0
 10
0.357422
 20
0.934082
 30
0.0
 40
0
 41
0
  0
VERTEX
  8
0
 10
0.357096
 20
0.927572
 30
0.0
 40
0
 41
0
  0
VERTEX
  8
0
 10
0.368218
 20
0.898708
 30
0.0
 40
0
 41
0
  0
VERTEX
  8
0
 10
0.392686
 20
0.879775
 30
0.0
 40
0
 41
0
  0
VERTEX
  8
0
 10
0.399089
 20
0.878147
 30
0.0
 40
0
 41
0
  0
VERTEX
  8
0
 10
0.402181
 20
0.877767
 30
0.0
 40
0
 41
0
  0
VERTEX
  8
0
 10
0.414008
 20
0.869521
 30
0.0
 40
0
 41
0
  0
VERTEX
  8
0
 10
0.418674
 20
0.855794
 30
0.0
 40
0
 41
0
  0
VERTEX
  8
0
 10
0.41824
 20
0.852701
 30
0.0
 40
0
 41
0
  0
VERTEX
  8
0
 10
0.417806
 20
0.849881
 30
0.0
 40
0
 41
0
  0
VERTEX
  8
0
 10
0.41059
 20
0.838433
 30
0.0
 40
0
 41
0
  0
VERTEX
  8
0
 10
0.398383
 20
0.832682
 30
0.0
 40
0
 41
0
  0
VERTEX
  8
0
 10
0.395508
 20
0.832628
 30
0.0
 40
0
 41
0
  0
VERTEX
  8
0
 10
0.391168
 20
0.832628
 30
0.0
 40
0
 41
0
  0
VERTEX
  8
0
 10
0.379232
 20
0.839247
 30
0.0
 40
0
 41
0
  0
VERTEX
  8
0
 10
0.378147
 20
0.840494
 30
0.0
 40
0
 41
0
  0
VERTEX
  8
0
 10
0.377171
 20
0.841635
 30
0.0
 40
0
 41
0
  0
VERTEX
  8
0
 10
0.373426
 20
0.854926
 30
0.0
 40
0
 41
0
  0
VERTEX
  8
0
 10
0.373643
 20
0.856338
 30
0.0
 40
0
 41
0
  0
VERTEX
  8
0
 10
0.373969
 20
0.858453
 30
0.0
 40
0
 41
0
  0
VERTEX
  8
0
 10
0.366319
 20
0.876953
 30
0.0
 40
0
 41
0
  0
VERTEX
  8
0
 10
0.364583
 20
0.878147
 30
0.0
 40
0
 41
0
  0
VERTEX
  8
0
 10
0.360894
 20
0.881131
 30
0.0
 40
0
 41
0
  0
VERTEX
  8
0
 10
0.34706
 20
0.899576
 30
0.0
 40
0
 41
0
  0
VERTEX
  8
0
 10
0.339789
 20
0.921496
 30
0.0
 40
0
 41
0
  0
VERTEX
  8
0
 10
0.339464
 20
0.926161
 30
0.0
 40
0
 41
0
  0
VERTEX
  8
0
 10
0.335667
 20
0.924317
 30
0.0
 40
0
 41
0
  0
VERTEX
  8
0
 10
0.30089
 20
0.900499
 30
0.0
 40
0
 41
0
  0
VERTEX
  8
0
 10
0.297797
 20
0.897624
 30
0.0
 40
0
 41
0
  0
VERTEX
  8
0
 10
0.293946
 20
0.894043
 30
0.0
 40
0
 41
0
  0
VERTEX
  8
0
 10
0.287272
 20
0.894043
 30
0.0
 40
0
 41
0
  0
VERTEX
  8
0
 10
0.285644
 20
0.893935
 30
0.0
 40
0
 41
0
  0
VERTEX
  8
0
 10
0.270074
 20
0.891601
 30
0.0
 40
0
 41
0
  0
VERTEX
  8
0
 10
0.268554
 20
0.891276
 30
0.0
 40
0
 41
0
  0
VERTEX
  8
0
 10
0.268121
 20
0.890462
 30
0.0
 40
0
 41
0
  0
VERTEX
  8
0
 10
0.26671
 20
0.881782
 30
0.0
 40
0
 41
0
  0
VERTEX
  8
0
 10
0.266872
 20
0.88086
 30
0.0
 40
0
 41
0
  0
VERTEX
  8
0
 10
0.26709
 20
0.874349
 30
0.0
 40
0
 41
0
  0
VERTEX
  8
0
 10
0.272732
 20
0.854981
 30
0.0
 40
0
 41
0
  0
VERTEX
  8
0
 10
0.286947
 20
0.833496
 30
0.0
 40
0
 41
0
  0
VERTEX
  8
0
 10
0.307726
 20
0.818251
 30
0.0
 40
0
 41
0
  0
VERTEX
  8
0
 10
0.326824
 20
0.81174
 30
0.0
 40
0
 41
0
  0
VERTEX
  8
0
 10
0.333333
 20
0.811143
 30
0.0
 40
0
 41
0
  0
VERTEX
  8
0
 10
0.337131
 20
0.811307
 30
0.0
 40
0
 41
0
  0
VERTEX
  8
0
 10
0.352974
 20
0.803657
 30
0.0
 40
0
 41
0
  0
VERTEX
  8
0
 10
0.361274
 20
0.78814
 30
0.0
 40
0
 41
0
  0
VERTEX
  8
0
 10
0.361328
 20
0.784289
 30
0.0
 40
0
 41
0
  0
VERTEX
  8
0
 10
0.361382
 20
0.780817
 30
0.0
 40
0
 41
0
  0
VERTEX
  8
0
 10
0.354818
 20
0.765679
 30
0.0
 40
0
 41
0
  0
VERTEX
  8
0
 10
0.341146
 20
0.756456
 30
0.0
 40
0
 41
0
  0
VERTEX
  8
0
 10
0.337728
 20
0.75586
 30
0.0
 40
0
 41
0
  0
VERTEX
  8
0
 10
0.337349
 20
0.75586
 30
0.0
 40
0
 41
0
  0
VERTEX
  8
0
 10
0.333658
 20
0.75586
 30
0.0
 40
0
 41
0
  0
VERTEX
  8
0
 10
0.333333
 20
0.75586
 30
0.0
 40
0
 41
0
  0
VERTEX
  8
0
 10
0.331651
 20
0.75586
 30
0.0
 40
0
 41
0
  0
VERTEX
  8
0
 10
0.316461
 20
0.761176
 30
0.0
 40
0
 41
0
  0
VERTEX
  8
0
 10
0.315212
 20
0.762207
 30
0.0
 40
0
 41
0
  0
VERTEX
  8
0
 10
0.313857
 20
0.763346
 30
0.0
 40
0
 41
0
  0
VERTEX
  8
0
 10
0.306913
 20
0.778483
 30
0.0
 40
0
 41
0
  0
VERTEX
  8
0
 10
0.306967
 20
0.780219
 30
0.0
 40
0
 41
0
  0
VERTEX
  8
0
 10
0.306913
 20
0.783149
 30
0.0
 40
0
 41
0
  0
VERTEX
  8
0
 10
0.302354
 20
0.796332
 30
0.0
 40
0
 41
0
  0
VERTEX
  8
0
 10
0.292643
 20
0.806424
 30
0.0
 40
0
 41
0
  0
VERTEX
  8
0
 10
0.290093
 20
0.807726
 30
0.0
 40
0
 41
0
  0
VERTEX
  8
0
 10
0.284017
 20
0.811199
 30
0.0
 40
0
 41
0
  0
VERTEX
  8
0
 10
0.260525
 20
0.835613
 30
0.0
 40
0
 41
0
  0
VERTEX
  8
0
 10
0.247939
 20
0.867025
 30
0.0
 40
0
 41
0
  0
VERTEX
  8
0
 10
0.247288
 20
0.873969
 30
0.0
 40
0
 41
0
  0
VERTEX
  8
0
 10
0.247233
 20
0.87424
 30
0.0
 40
0
 41
0
  0
VERTEX
  8
0
 10
0.246744
 20
0.877007
 30
0.0
 40
0
 41
0
  0
VERTEX
  8
0
 10
0.24669
 20
0.877279
 30
0.0
 40
0
 41
0
  0
VERTEX
  8
0
 10
0.246039
 20
0.879665
 30
0.0
 40
0
 41
0
  0
VERTEX
  8
0
 10
0.245985
 20
0.8801
 30
0.0
 40
0
 41
0
  0
VERTEX
  8
0
 10
0.244194
 20
0.883789
 30
0.0
 40
0
 41
0
  0
VERTEX
  8
0
 10
0.243869
 20
0.88406
 30
0.0
 40
0
 41
0
  0
VERTEX
  8
0
 10
0.243218
 20
0.88406
 30
0.0
 40
0
 41
0
  0
VERTEX
  8
0
 10
0.235189
 20
0.881347
 30
0.0
 40
0
 41
0
  0
VERTEX
  8
0
 10
0.198622
 20
0.861111
 30
0.0
 40
0
 41
0
  0
VERTEX
  8
0
 10
0.167643
 20
0.833008
 30
0.0
 40
0
 41
0
  0
VERTEX
  8
0
 10
0.162489
 20
0.826335
 30
0.0
 40
0
 41
0
  0
VERTEX
  8
0
 10
0.180826
 20
0.81071
 30
0.0
 40
0
 41
0
  0
VERTEX
  8
0
 10
0.182562
 20
0.809244
 30
0.0
 40
0
 41
0
  0
VERTEX
  8
0
 10
0.200358
 20
0.794108
 30
0.0
 40
0
 41
0
  0
VERTEX
  8
0
 10
0.202203
 20
0.792589
 30
0.0
 40
0
 41
0
  0
VERTEX
  8
0
 10
0.204047
 20
0.790474
 30
0.0
 40
0
 41
0
  0
VERTEX
  8
0
 10
0.229221
 20
0.780436
 30
0.0
 40
0
 41
0
  0
VERTEX
  8
0
 10
0.232096
 20
0.780707
 30
0.0
 40
0
 41
0
  0
VERTEX
  8
0
 10
0.233942
 20
0.781033
 30
0.0
 40
0
 41
0
  0
VERTEX
  8
0
 10
0.251465
 20
0.775879
 30
0.0
 40
0
 41
0
  0
VERTEX
  8
0
 10
0.252929
 20
0.774576
 30
0.0
 40
0
 41
0
  0
VERTEX
  8
0
 10
0.254503
 20
0.773113
 30
0.0
 40
0
 41
0
  0
VERTEX
  8
0
 10
0.262642
 20
0.753689
 30
0.0
 40
0
 41
0
  0
VERTEX
  8
0
 10
0.262587
 20
0.751465
 30
0.0
 40
0
 41
0
  0
VERTEX
  8
0
 10
0.262424
 20
0.747558
 30
0.0
 40
0
 41
0
  0
VERTEX
  8
0
 10
0.253851
 20
0.731446
 30
0.0
 40
0
 41
0
  0
VERTEX
  8
0
 10
0.237847
 20
0.722657
 30
0.0
 40
0
 41
0
  0
VERTEX
  8
0
 10
0.233942
 20
0.722385
 30
0.0
 40
0
 41
0
  0
VERTEX
  8
0
 10
0.23291
 20
0.722385
 30
0.0
 40
0
 41
0
  0
VERTEX
  8
0
 10
0.228407
 20
0.722385
 30
0.0
 40
0
 41
0
  0
VERTEX
  8
0
 10
0.215007
 20
0.730197
 30
0.0
 40
0
 41
0
  0
VERTEX
  8
0
 10
0.206489
 20
0.74669
 30
0.0
 40
0
 41
0
  0
VERTEX
  8
0
 10
0.205946
 20
0.751031
 30
0.0
 40
0
 41
0
  0
VERTEX
  8
0
 10
0.205946
 20
0.754394
 30
0.0
 40
0
 41
0
  0
VERTEX
  8
0
 10
0.206
 20
0.755697
 30
0.0
 40
0
 41
0
  0
VERTEX
  8
0
 10
0.201226
 20
0.767144
 30
0.0
 40
0
 41
0
  0
VERTEX
  8
0
 10
0.200304
 20
0.768013
 30
0.0
 40
0
 41
0
  0
VERTEX
  8
0
 10
0.195747
 20
0.771701
 30
0.0
 40
0
 41
0
  0
VERTEX
  8
0
 10
0.155111
 20
0.805664
 30
0.0
 40
0
 41
0
  0
VERTEX
  8
0
 10
0.151476
 20
0.808865
 30
0.0
 40
0
 41
0
  0
VERTEX
  8
0
 10
0.150825
 20
0.809463
 30
0.0
 40
0
 41
0
  0
VERTEX
  8
0
 10
0.149522
 20
0.807238
 30
0.0
 40
0
 41
0
  0
VERTEX
  8
0
 10
0.138726
 20
0.783746
 30
0.0
 40
0
 41
0
  0
VERTEX
  8
0
 10
0.137912
 20
0.78125
 30
0.0
 40
0
 41
0
  0
VERTEX
  8
0
 10
0.13623
 20
0.77615
 30
0.0
 40
0
 41
0
  0
VERTEX
  8
0
 10
0.131673
 20
0.773329
 30
0.0
 40
0
 41
0
  0
VERTEX
  8
0
 10
0.125108
 20
0.769422
 30
0.0
 40
0
 41
0
  0
VERTEX
  8
0
 10
0.098904
 20
0.742893
 30
0.0
 40
0
 41
0
  0
VERTEX
  8
0
 10
0.082845
 20
0.709256
 30
0.0
 40
0
 41
0
  0
VERTEX
  8
0
 10
0.0813803
 20
0.701768
 30
0.0
 40
0
 41
0
  0
VERTEX
  8
0
 10
0.0961372
 20
0.698839
 30
0.0
 40
0
 41
0
  0
VERTEX
  8
0
 10
0.119249
 20
0.69439
 30
0.0
 40
0
 41
0
  0
VERTEX
  8
0
 10
0.121473
 20
0.693576
 30
0.0
 40
0
 41
0
  0
VERTEX
  8
0
 10
0.143881
 20
0.69656
 30
0.0
 40
0
 41
0
  0
VERTEX
  8
0
 10
0.145833
 20
0.697917
 30
0.0
 40
0
 41
0
  0
VERTEX
  8
0
 10
0.147136
 20
0.698947
 30
0.0
 40
0
 41
0
  0
VERTEX
  8
0
 10
0.162815
 20
0.702636
 30
0.0
 40
0
 41
0
  0
VERTEX
  8
0
 10
0.164497
 20
0.702311
 30
0.0
 40
0
 41
0
  0
VERTEX
  8
0
 10
0.166342
 20
0.701878
 30
0.0
 40
0
 41
0
  0
VERTEX
  8
0
 10
0.180772
 20
0.690647
 30
0.0
 40
0
 41
0
  0
VERTEX
  8
0
 10
0.18164
 20
0.688965
 30
0.0
 40
0
 41
0
  0
VERTEX
  8
0
 10
0.18316
 20
0.685981
 30
0.0
 40
0
 41
0
  0
VERTEX
  8
0
 10
0.183649
 20
0.670193
 30
0.0
 40
0
 41
0
  0
VERTEX
  8
0
 10
0.175347
 20
0.656739
 30
0.0
 40
0
 41
0
  0
VERTEX
  8
0
 10
0.172526
 20
0.654893
 30
0.0
 40
0
 41
0
  0
VERTEX
  8
0
 10
0.171658
 20
0.654406
 30
0.0
 40
0
 41
0
  0
VERTEX
  8
0
 10
0.162218
 20
0.651639
 30
0.0
 40
0
 41
0
  0
VERTEX
  8
0
 10
0.161242
 20
0.651585
 30
0.0
 40
0
 41
0
  0
VERTEX
  8
0
 10
0.158963
 20
0.651747
 30
0.0
 40
0
 41
0
  0
VERTEX
  8
0
 10
0.140246
 20
0.662597
 30
0.0
 40
0
 41
0
  0
VERTEX
  8
0
 10
0.139051
 20
0.664497
 30
0.0
 40
0
 41
0
  0
VERTEX
  8
0
 10
0.13737
 20
0.666775
 30
0.0
 40
0
 41
0
  0
VERTEX
  8
0
 10
0.136664
 20
0.667751
 30
0.0
 40
0
 41
0
  0
VERTEX
  8
0
 10
0.129286
 20
0.67399
 30
0.0
 40
0
 41
0
  0
VERTEX
  8
0
 10
0.128147
 20
0.674154
 30
0.0
 40
0
 41
0
  0
VERTEX
  8
0
 10
0.123698
 20
0.674914
 30
0.0
 40
0
 41
0
  0
VERTEX
  8
0
 10
0.0837131
 20
0.682292
 30
0.0
 40
0
 41
0
  0
VERTEX
  8
0
 10
0.0800782
 20
0.682997
 30
0.0
 40
0
 41
0
  0
VERTEX
  8
0
 10
0.0800239
 20
0.682346
 30
0.0
 40
0
 41
0
  0
VERTEX
  8
0
 10
0.0800239
 20
0.675401
 30
0.0
 40
0
 41
0
  0
VERTEX
  8
0
 10
0.0800782
 20
0.674696
 30
0.0
 40
0
 41
0
  0
VERTEX
  8
0
 10
0.0807292
 20
0.668349
 30
0.0
 40
0
 41
0
  0
VERTEX
  8
0
 10
0.0910374
 20
0.63851
 30
0.0
 40
0
 41
0
  0
VERTEX
  8
0
 10
0.109701
 20
0.613064
 30
0.0
 40
0
 41
0
  0
VERTEX
  8
0
 10
0.114583
 20
0.608832
 30
0.0
 40
0
 41
0
  0
VERTEX
  8
0
 10
0.1199
 20
0.604275
 30
0.0
 40
0
 41
0
  0
VERTEX
  8
0
 10
0.1199
 20
0.597168
 30
0.0
 40
0
 41
0
  0
VERTEX
  8
0
 10
0.119792
 20
0.596029
 30
0.0
 40
0
 41
0
  0
VERTEX
  8
0
 10
0.119792
 20
0.584093
 30
0.0
 40
0
 41
0
  0
VERTEX
  8
0
 10
0.1199
 20
0.5829
 30
0.0
 40
0
 41
0
  0
VERTEX
  8
0
 10
0.12066
 20
0.574978
 30
0.0
 40
0
 41
0
  0
VERTEX
  8
0
 10
0.134006
 20
0.538357
 30
0.0
 40
0
 41
0
  0
VERTEX
  8
0
 10
0.158583
 20
0.508029
 30
0.0
 40
0
 41
0
  0
VERTEX
  8
0
 10
0.164985
 20
0.503256
 30
0.0
 40
0
 41
0
  0
VERTEX
  8
0
 10
0.171713
 20
0.498156
 30
0.0
 40
0
 41
0
  0
VERTEX
  8
0
 10
0.209744
 20
0.481119
 30
0.0
 40
0
 41
0
  0
VERTEX
  8
0
 10
0.251139
 20
0.476019
 30
0.0
 40
0
 41
0
  0
VERTEX
  8
0
 10
0.259603
 20
0.476887
 30
0.0
 40
0
 41
0
  0
VERTEX
  8
0
 10
0.265896
 20
0.477485
 30
0.0
 40
0
 41
0
  0
VERTEX
  8
0
 10
0.296332
 20
0.48546
 30
0.0
 40
0
 41
0
  0
VERTEX
  8
0
 10
0.324274
 20
0.499946
 30
0.0
 40
0
 41
0
  0
VERTEX
  8
0
 10
0.329372
 20
0.503743
 30
0.0
 40
0
 41
0
  0
VERTEX
  8
0
 10
0.335394
 20
0.508464
 30
0.0
 40
0
 41
0
  0
VERTEX
  8
0
 10
0.337076
 20
0.510851
 30
0.0
 40
0
 41
0
  0
VERTEX
  8
0
 10
0.340278
 20
0.538194
 30
0.0
 40
0
 41
0
  0
VERTEX
  8
0
 10
0.339193
 20
0.540853
 30
0.0
 40
0
 41
0
  0
VERTEX
  8
0
 10
0.336372
 20
0.547092
 30
0.0
 40
0
 41
0
  0
VERTEX
  8
0
 10
0.326226
 20
0.564942
 30
0.0
 40
0
 41
0
  0
VERTEX
  8
0
 10
0.312338
 20
0.578831
 30
0.0
 40
0
 41
0
  0
VERTEX
  8
0
 10
0.293565
 20
0.585232
 30
0.0
 40
0
 41
0
  0
VERTEX
  8
0
 10
0.273058
 20
0.58686
 30
0.0
 40
0
 41
0
  0
VERTEX
  8
0
 10
0.266276
 20
0.58686
 30
0.0
 40
0
 41
0
  0
VERTEX
  8
0
 10
0.262261
 20
0.58686
 30
0.0
 40
0
 41
0
  0
VERTEX
  8
0
 10
0.250325
 20
0.581381
 30
0.0
 40
0
 41
0
  0
VERTEX
  8
0
 10
0.241428
 20
0.572265
 30
0.0
 40
0
 41
0
  0
VERTEX
  8
0
 10
0.239475
 20
0.570421
 30
0.0
 40
0
 41
0
  0
VERTEX
  8
0
 10
0.236708
 20
0.567979
 30
0.0
 40
0
 41
0
  0
VERTEX
  8
0
 10
0.220161
 20
0.561849
 30
0.0
 40
0
 41
0
  0
VERTEX
  8
0
 10
0.202636
 20
0.564019
 30
0.0
 40
0
 41
0
  0
VERTEX
  8
0
 10
0.199382
 20
0.565756
 30
0.0
 40
0
 41
0
  0
VERTEX
  8
0
 10
0.196669
 20
0.567383
 30
0.0
 40
0
 41
0
  0
VERTEX
  8
0
 10
0.186415
 20
0.578722
 30
0.0
 40
0
 41
0
  0
VERTEX
  8
0
 10
0.181532
 20
0.593207
 30
0.0
 40
0
 41
0
  0
VERTEX
  8
0
 10
0.181478
 20
0.596354
 30
0.0
 40
0
 41
0
  0
VERTEX
  8
0
 10
0.18164
 20
0.600097
 30
0.0
 40
0
 41
0
  0
VERTEX
  8
0
 10
0.188857
 20
0.616265
 30
0.0
 40
0
 41
0
  0
VERTEX
  8
0
 10
0.202746
 20
0.627333
 30
0.0
 40
0
 41
0
  0
VERTEX
  8
0
 10
0.206272
 20
0.628418
 30
0.0
 40
0
 41
0
  0
VERTEX
  8
0
 10
0.209472
 20
0.629829
 30
0.0
 40
0
 41
0
  0
VERTEX
  8
0
 10
0.225857
 20
0.629665
 30
0.0
 40
0
 41
0
  0
VERTEX
  8
0
 10
0.2398
 20
0.620931
 30
0.0
 40
0
 41
0
  0
VERTEX
  8
0
 10
0.241754
 20
0.618001
 30
0.0
 40
0
 41
0
  0
VERTEX
  8
0
 10
0.243815
 20
0.614746
 30
0.0
 40
0
 41
0
  0
VERTEX
  8
0
 10
0.25586
 20
0.606282
 30
0.0
 40
0
 41
0
  0
VERTEX
  8
0
 10
0.269911
 20
0.604438
 30
0.0
 40
0
 41
0
  0
VERTEX
  8
0
 10
0.273004
 20
0.604492
 30
0.0
 40
0
 41
0
  0
VERTEX
  8
0
 10
0.277615
 20
0.604492
 30
0.0
 40
0
 41
0
  0
VERTEX
  8
0
 10
0.288032
 20
0.604492
 30
0.0
 40
0
 41
0
  0
VERTEX
  8
0
 10
0.291558
 20
0.604492
 30
0.0
 40
0
 41
0
  0
VERTEX
  8
0
 10
0.29655
 20
0.604656
 30
0.0
 40
0
 41
0
  0
VERTEX
  8
0
 10
0.31939
 20
0.597168
 30
0.0
 40
0
 41
0
  0
VERTEX
  8
0
 10
0.336643
 20
0.580458
 30
0.0
 40
0
 41
0
  0
VERTEX
  8
0
 10
0.338867
 20
0.575956
 30
0.0
 40
0
 41
0
  0
VERTEX
  8
0
 10
0.339899
 20
0.573947
 30
0.0
 40
0
 41
0
  0
VERTEX
  8
0
 10
0.352106
 20
0.554417
 30
0.0
 40
0
 41
0
  0
VERTEX
  8
0
 10
0.353353
 20
0.552408
 30
0.0
 40
0
 41
0
  0
VERTEX
  8
0
 10
0.354167
 20
0.550347
 30
0.0
 40
0
 41
0
  0
VERTEX
  8
0
 10
0.36225
 20
0.544814
 30
0.0
 40
0
 41
0
  0
VERTEX
  8
0
 10
0.371907
 20
0.546386
 30
0.0
 40
0
 41
0
  0
VERTEX
  8
0
 10
0.373535
 20
0.547906
 30
0.0
 40
0
 41
0
  0
VERTEX
  8
0
 10
0.37934
 20
0.551758
 30
0.0
 40
0
 41
0
  0
VERTEX
  8
0
 10
0.430067
 20
0.598687
 30
0.0
 40
0
 41
0
  0
VERTEX
  8
0
 10
0.434353
 20
0.604167
 30
0.0
 40
0
 41
0
  0
VERTEX
  8
0
 10
0.437879
 20
0.608561
 30
0.0
 40
0
 41
0
  0
VERTEX
  8
0
 10
0.448133
 20
0.622071
 30
0.0
 40
0
 41
0
  0
VERTEX
  8
0
 10
0.45204
 20
0.633356
 30
0.0
 40
0
 41
0
  0
VERTEX
  8
0
 10
0.44515
 20
0.643067
 30
0.0
 40
0
 41
0
  0
VERTEX
  8
0
 10
0.431315
 20
0.653103
 30
0.0
 40
0
 41
0
  0
VERTEX
  8
0
 10
0.42665
 20
0.65625
 30
0.0
 40
0
 41
0
  0
VERTEX
  8
0
 10
0.421929
 20
0.659397
 30
0.0
 40
0
 41
0
  0
VERTEX
  8
0
 10
0.39605
 20
0.670247
 30
0.0
 40
0
 41
0
  0
VERTEX
  8
0
 10
0.368326
 20
0.674317
 30
0.0
 40
0
 41
0
  0
VERTEX
  8
0
 10
0.362685
 20
0.674046
 30
0.0
 40
0
 41
0
  0
VERTEX
  8
0
 10
0.356771
 20
0.674046
 30
0.0
 40
0
 41
0
  0
VERTEX
  8
0
 10
0.339085
 20
0.671278
 30
0.0
 40
0
 41
0
  0
VERTEX
  8
0
 10
0.321994
 20
0.661242
 30
0.0
 40
0
 41
0
  0
VERTEX
  8
0
 10
0.318847
 20
0.657607
 30
0.0
 40
0
 41
0
  0
VERTEX
  8
0
 10
0.316569
 20
0.655003
 30
0.0
 40
0
 41
0
  0
VERTEX
  8
0
 10
0.302735
 20
0.651531
 30
0.0
 40
0
 41
0
  0
VERTEX
  8
0
 10
0.288574
 20
0.658421
 30
0.0
 40
0
 41
0
  0
VERTEX
  8
0
 10
0.286242
 20
0.661025
 30
0.0
 40
0
 41
0
  0
VERTEX
  8
0
 10
0.283962
 20
0.663357
 30
0.0
 40
0
 41
0
  0
VERTEX
  8
0
 10
0.279243
 20
0.677681
 30
0.0
 40
0
 41
0
  0
VERTEX
  8
0
 10
0.283203
 20
0.692219
 30
0.0
 40
0
 41
0
  0
VERTEX
  8
0
 10
0.285319
 20
0.694661
 30
0.0
 40
0
 41
0
  0
VERTEX
  8
0
 10
0.287381
 20
0.697265
 30
0.0
 40
0
 41
0
  0
VERTEX
  8
0
 10
0.301486
 20
0.704753
 30
0.0
 40
0
 41
0
  0
VERTEX
  8
0
 10
0.315593
 20
0.702257
 30
0.0
 40
0
 41
0
  0
VERTEX
  8
0
 10
0.317708
 20
0.699869
 30
0.0
 40
0
 41
0
  0
VERTEX
  8
0
 10
0.321235
 20
0.695964
 30
0.0
 40
0
 41
0
  0
VERTEX
  8
0
 10
0.340712
 20
0.6875
 30
0.0
 40
0
 41
0
  0
VERTEX
  8
0
 10
0.361328
 20
0.687175
 30
0.0
 40
0
 41
0
  0
VERTEX
  8
0
 10
0.365506
 20
0.687283
 30
0.0
 40
0
 41
0
  0
VERTEX
  8
0
 10
0.371149
 20
0.687663
 30
0.0
 40
0
 41
0
  0
VERTEX
  8
0
 10
0.398926
 20
0.684136
 30
0.0
 40
0
 41
0
  0
VERTEX
  8
0
 10
0.424914
 20
0.673719
 30
0.0
 40
0
 41
0
  0
VERTEX
  8
0
 10
0.429688
 20
0.670628
 30
0.0
 40
0
 41
0
  0
VERTEX
  8
0
 10
0.433214
 20
0.668294
 30
0.0
 40
0
 41
0
  0
VERTEX
  8
0
 10
0.450412
 20
0.654025
 30
0.0
 40
0
 41
0
  0
VERTEX
  8
0
 10
0.469239
 20
0.644422
 30
0.0
 40
0
 41
0
  0
VERTEX
  8
0
 10
0.473633
 20
0.644368
 30
0.0
 40
0
 41
0
  0
VERTEX
  8
0
 10
0.477974
 20
0.644314
 30
0.0
 40
0
 41
0
  0
VERTEX
  8
0
 10
0.499078
 20
0.648926
 30
0.0
 40
0
 41
0
  0
VERTEX
  8
0
 10
0.519965
 20
0.655111
 30
0.0
 40
0
 41
0
  0
VERTEX
  8
0
 10
0.524251
 20
0.655817
 30
0.0
 40
0
 41
0
  0
VERTEX
  8
0
 10
0.529189
 20
0.656739
 30
0.0
 40
0
 41
0
  0
VERTEX
  8
0
 10
0.549317
 20
0.667264
 30
0.0
 40
0
 41
0
  0
VERTEX
  8
0
 10
0.565483
 20
0.683376
 30
0.0
 40
0
 41
0
  0
VERTEX
  8
0
 10
0.568522
 20
0.687067
 30
0.0
 40
0
 41
0
  0
VERTEX
  8
0
 10
0.569988
 20
0.688857
 30
0.0
 40
0
 41
0
  0
VERTEX
  8
0
 10
0.568901
 20
0.704156
 30
0.0
 40
0
 41
0
  0
VERTEX
  8
0
 10
0.567492
 20
0.705729
 30
0.0
 40
0
 41
0
  0
VERTEX
  8
0
 10
0.563965
 20
0.709744
 30
0.0
 40
0
 41
0
  0
VERTEX
  8
0
 10
0.54465
 20
0.726074
 30
0.0
 40
0
 41
0
  0
VERTEX
  8
0
 10
0.520996
 20
0.73481
 30
0.0
 40
0
 41
0
  0
VERTEX
  8
0
 10
0.515408
 20
0.735026
 30
0.0
 40
0
 41
0
  0
VERTEX
  8
0
 10
0.509765
 20
0.735243
 30
0.0
 40
0
 41
0
  0
VERTEX
  8
0
 10
0.482747
 20
0.735949
 30
0.0
 40
0
 41
0
  0
VERTEX
  8
0
 10
0.458442
 20
0.724881
 30
0.0
 40
0
 41
0
  0
VERTEX
  8
0
 10
0.454156
 20
0.719185
 30
0.0
 40
0
 41
0
  0
VERTEX
  8
0
 10
0.45204
 20
0.716417
 30
0.0
 40
0
 41
0
  0
VERTEX
  8
0
 10
0.436957
 20
0.711262
 30
0.0
 40
0
 41
0
  0
VERTEX
  8
0
 10
0.420247
 20
0.715549
 30
0.0
 40
0
 41
0
  0
VERTEX
  8
0
 10
0.417372
 20
0.717503
 30
0.0
 40
0
 41
0
  0
VERTEX
  8
0
 10
0.413303
 20
0.719943
 30
0.0
 40
0
 41
0
  0
VERTEX
  8
0
 10
0.404135
 20
0.732042
 30
0.0
 40
0
 41
0
  0
VERTEX
  8
0
 10
0.401096
 20
0.750108
 30
0.0
 40
0
 41
0
  0
VERTEX
  8
0
 10
0.407769
 20
0.767253
 30
0.0
 40
0
 41
0
  0
VERTEX
  8
0
 10
0.419217
 20
0.777235
 30
0.0
 40
0
 41
0
  0
VERTEX
  8
0
 10
0.423665
 20
0.778754
 30
0.0
 40
0
 41
0
  0
VERTEX
  8
0
 10
0.426812
 20
0.780219
 30
0.0
 40
0
 41
0
  0
VERTEX
  8
0
 10
0.44336
 20
0.780653
 30
0.0
 40
0
 41
0
  0
VERTEX
  8
0
 10
0.45779
 20
0.772515
 30
0.0
 40
0
 41
0
  0
VERTEX
  8
0
 10
0.459907
 20
0.769694
 30
0.0
 40
0
 41
0
  0
VERTEX
  8
0
 10
0.461426
 20
0.767036
 30
0.0
 40
0
 41
0
  0
VERTEX
  8
0
 10
0.472765
 20
0.757433
 30
0.0
 40
0
 41
0
  0
VERTEX
  8
0
 10
0.487142
 20
0.753689
 30
0.0
 40
0
 41
0
  0
VERTEX
  8
0
 10
0.490235
 20
0.753961
 30
0.0
 40
0
 41
0
  0
VERTEX
  8
0
 10
0.498699
 20
0.754449
 30
0.0
 40
0
 41
0
  0
VERTEX
  8
0
 10
0.538574
 20
0.748807
 30
0.0
 40
0
 41
0
  0
VERTEX
  8
0
 10
0.572971
 20
0.72819
 30
0.0
 40
0
 41
0
  0
VERTEX
  8
0
 10
0.578776
 20
0.721138
 30
0.0
 40
0
 41
0
  0
VERTEX
  8
0
 10
0.579536
 20
0.720161
 30
0.0
 40
0
 41
0
  0
VERTEX
  8
0
 10
0.590494
 20
0.717339
 30
0.0
 40
0
 41
0
  0
VERTEX
  8
0
 10
0.591851
 20
0.718425
 30
0.0
 40
0
 41
0
  0
VERTEX
  8
0
 10
0.594456
 20
0.72054
 30
0.0
 40
0
 41
0
  0
VERTEX
  8
0
 10
0.609321
 20
0.730632
 30
0.0
 40
0
 41
0
  0
VERTEX
  8
0
 10
0.620063
 20
0.74159
 30
0.0
 40
0
 41
0
  0
VERTEX
  8
0
 10
0.620606
 20
0.744086
 30
0.0
 40
0
 41
0
  0
VERTEX
  8
0
 10
0.620985
 20
0.74821
 30
0.0
 40
0
 41
0
  0
VERTEX
  8
0
 10
0.617731
 20
0.768067
 30
0.0
 40
0
 41
0
  0
VERTEX
  8
0
 10
0.60791
 20
0.785699
 30
0.0
 40
0
 41
0
  0
VERTEX
  8
0
 10
0.605089
 20
0.788629
 30
0.0
 40
0
 41
0
  0
VERTEX
  8
0
 10
0.604601
 20
0.789225
 30
0.0
 40
0
 41
0
  0
VERTEX
  8
0
 10
0.598687
 20
0.794054
 30
0.0
 40
0
 41
0
  0
VERTEX
  8
0
 10
0.598253
 20
0.794596
 30
0.0
 40
0
 41
0
  0
VERTEX
  8
0
 10
0.595811
 20
0.797146
 30
0.0
 40
0
 41
0
  0
VERTEX
  8
0
 10
0.591037
 20
0.812608
 30
0.0
 40
0
 41
0
  0
VERTEX
  8
0
 10
0.595811
 20
0.828125
 30
0.0
 40
0
 41
0
  0
VERTEX
  8
0
 10
0.598253
 20
0.830621
 30
0.0
 40
0
 41
0
  0
VERTEX
  8
0
 10
0.600694
 20
0.832628
 30
0.0
 40
0
 41
0
  0
VERTEX
  8
0
 10
0.615018
 20
0.837022
 30
0.0
 40
0
 41
0
  0
VERTEX
  8
0
 10
0.629719
 20
0.834039
 30
0.0
 40
0
 41
0
  0
VERTEX
  8
0
 10
0.632379
 20
0.832303
 30
0.0
 40
0
 41
0
  0
VERTEX
  8
0
 10
0.634711
 20
0.830513
 30
0.0
 40
0
 41
0
  0
VERTEX
  8
0
 10
0.641982
 20
0.816624
 30
0.0
 40
0
 41
0
  0
VERTEX
  8
0
 10
0.639865
 20
0.801812
 30
0.0
 40
0
 41
0
  0
VERTEX
  8
0
 10
0.637587
 20
0.799479
 30
0.0
 40
0
 41
0
  0
VERTEX
  8
0
 10
0.633951
 20
0.795899
 30
0.0
 40
0
 41
0
  0
VERTEX
  8
0
 10
0.628526
 20
0.7787
 30
0.0
 40
0
 41
0
  0
VERTEX
  8
0
 10
0.632975
 20
0.761501
 30
0.0
 40
0
 41
0
  0
VERTEX
  8
0
 10
0.634278
 20
0.757813
 30
0.0
 40
0
 41
0
  0
VERTEX
  8
0
 10
0.635037
 20
0.755751
 30
0.0
 40
0
 41
0
  0
VERTEX
  8
0
 10
0.640028
 20
0.749186
 30
0.0
 40
0
 41
0
  0
VERTEX
  8
0
 10
0.64784
 20
0.747558
 30
0.0
 40
0
 41
0
  0
VERTEX
  8
0
 10
0.650011
 20
0.747939
 30
0.0
 40
0
 41
0
  0
VERTEX
  8
0
 10
0.652126
 20
0.748318
 30
0.0
 40
0
 41
0
  0
VERTEX
  8
0
 10
0.669217
 20
0.750489
 30
0.0
 40
0
 41
0
  0
VERTEX
  8
0
 10
0.670844
 20
0.750814
 30
0.0
 40
0
 41
0
  0
VERTEX
  8
0
 10
0.675022
 20
0.751628
 30
0.0
 40
0
 41
0
  0
VERTEX
  8
0
 10
0.693197
 20
0.760579
 30
0.0
 40
0
 41
0
  0
VERTEX
  8
0
 10
0.70931
 20
0.773058
 30
0.0
 40
0
 41
0
  0
VERTEX
  8
0
 10
0.712511
 20
0.775608
 30
0.0
 40
0
 41
0
  0
VERTEX
  8
0
 10
0.715115
 20
0.777669
 30
0.0
 40
0
 41
0
  0
VERTEX
  8
0
 10
0.719401
 20
0.789333
 30
0.0
 40
0
 41
0
  0
VERTEX
  8
0
 10
0.719347
 20
0.801594
 30
0.0
 40
0
 41
0
  0
VERTEX
  8
0
 10
0.719781
 20
0.803982
 30
0.0
 40
0
 41
0
  0
VERTEX
  8
0
 10
0.720161
 20
0.806967
 30
0.0
 40
0
 41
0
  0
VERTEX
  8
0
 10
0.726508
 20
0.819715
 30
0.0
 40
0
 41
0
  0
VERTEX
  8
0
 10
0.737793
 20
0.82856
 30
0.0
 40
0
 41
0
  0
VERTEX
  8
0
 10
0.740614
 20
0.829482
 30
0.0
 40
0
 41
0
  0
VERTEX
  8
0
 10
0.74235
 20
0.830078
 30
0.0
 40
0
 41
0
  0
VERTEX
  8
0
 10
0.760633
 20
0.831054
 30
0.0
 40
0
 41
0
  0
VERTEX
  8
0
 10
0.762478
 20
0.830621
 30
0.0
 40
0
 41
0
  0
VERTEX
  8
0
 10
0.764865
 20
0.829915
 30
0.0
 40
0
 41
0
  0
VERTEX
  8
0
 10
0.782443
 20
0.813422
 30
0.0
 40
0
 41
0
  0
VERTEX
  8
0
 10
0.783311
 20
0.811035
 30
0.0
 40
0
 41
0
  0
VERTEX
  8
0
 10
0.783963
 20
0.808974
 30
0.0
 40
0
 41
0
  0
VERTEX
  8
0
 10
0.784776
 20
0.787435
 30
0.0
 40
0
 41
0
  0
VERTEX
  8
0
 10
0.784289
 20
0.785319
 30
0.0
 40
0
 41
0
  0
VERTEX
  8
0
 10
0.783692
 20
0.783257
 30
0.0
 40
0
 41
0
  0
VERTEX
  8
0
 10
0.769422
 20
0.768067
 30
0.0
 40
0
 41
0
  0
VERTEX
  8
0
 10
0.767415
 20
0.767307
 30
0.0
 40
0
 41
0
  0
VERTEX
  8
0
 10
0.765246
 20
0.766601
 30
0.0
 40
0
 41
0
  0
VERTEX
  8
0
 10
0.742839
 20
0.765408
 30
0.0
 40
0
 41
0
  0
VERTEX
  8
0
 10
0.740614
 20
0.765842
 30
0.0
 40
0
 41
0
  0
VERTEX
  8
0
 10
0.738878
 20
0.766331
 30
0.0
 40
0
 41
0
  0
VERTEX
  8
0
 10
0.722711
 20
0.76199
 30
0.0
 40
0
 41
0
  0
VERTEX
  8
0
 10
0.721463
 20
0.760742
 30
0.0
 40
0
 41
0
  0
VERTEX
  8
0
 10
0.720161
 20
0.759549
 30
0.0
 40
0
 41
0
  0
VERTEX
  8
0
 10
0.706489
 20
0.747993
 30
0.0
 40
0
 41
0
  0
VERTEX
  8
0
 10
0.705296
 20
0.74669
 30
0.0
 40
0
 41
0
  0
VERTEX
  8
0
 10
0.70356
 20
0.7449
 30
0.0
 40
0
 41
0
  0
VERTEX
  8
0
 10
0.691407
 20
0.739746
 30
0.0
 40
0
 41
0
  0
VERTEX
  8
0
 10
0.682292
 20
0.732639
 30
0.0
 40
0
 41
0
  0
VERTEX
  8
0
 10
0.682075
 20
0.729981
 30
0.0
 40
0
 41
0
  0
VERTEX
  8
0
 10
0.681803
 20
0.727322
 30
0.0
 40
0
 41
0
  0
VERTEX
  8
0
 10
0.68826
 20
0.715712
 30
0.0
 40
0
 41
0
  0
VERTEX
  8
0
 10
0.698351
 20
0.704969
 30
0.0
 40
0
 41
0
  0
VERTEX
  8
0
 10
0.699978
 20
0.702692
 30
0.0
 40
0
 41
0
  0
VERTEX
  8
0
 10
0.703776
 20
0.697808
 30
0.0
 40
0
 41
0
  0
VERTEX
  8
0
 10
0.706381
 20
0.694282
 30
0.0
 40
0
 41
0
  0
VERTEX
  8
0
 10
0.720107
 20
0.677354
 30
0.0
 40
0
 41
0
  0
VERTEX
  8
0
 10
0.7398
 20
0.667426
 30
0.0
 40
0
 41
0
  0
VERTEX
  8
0
 10
0.745443
 20
0.667318
 30
0.0
 40
0
 41
0
  0
VERTEX
  8
0
 10
0.748426
 20
0.667318
 30
0.0
 40
0
 41
0
  0
VERTEX
  8
0
 10
0.757542
 20
0.660644
 30
0.0
 40
0
 41
0
  0
VERTEX
  8
0
 10
0.762642
 20
0.647949
 30
0.0
 40
0
 41
0
  0
VERTEX
  8
0
 10
0.762804
 20
0.644911
 30
0.0
 40
0
 41
0
  0
VERTEX
  8
0
 10
0.763075
 20
0.641439
 30
0.0
 40
0
 41
0
  0
VERTEX
  8
0
 10
0.756619
 20
0.626628
 30
0.0
 40
0
 41
0
  0
VERTEX
  8
0
 10
0.742512
 20
0.618707
 30
0.0
 40
0
 41
0
  0
VERTEX
  8
0
 10
0.73904
 20
0.618653
 30
0.0
 40
0
 41
0
  0
VERTEX
  8
0
 10
0.735081
 20
0.61849
 30
0.0
 40
0
 41
0
  0
VERTEX
  8
0
 10
0.719347
 20
0.624024
 30
0.0
 40
0
 41
0
  0
VERTEX
  8
0
 10
0.712619
 20
0.637532
 30
0.0
 40
0
 41
0
  0
VERTEX
  8
0
 10
0.713217
 20
0.641331
 30
0.0
 40
0
 41
0
  0
VERTEX
  8
0
 10
0.713921
 20
0.646213
 30
0.0
 40
0
 41
0
  0
VERTEX
  8
0
 10
0.709472
 20
0.665582
 30
0.0
 40
0
 41
0
  0
VERTEX
  8
0
 10
0.698406
 20
0.681532
 30
0.0
 40
0
 41
0
  0
VERTEX
  8
0
 10
0.695856
 20
0.684679
 30
0.0
 40
0
 41
0
  0
VERTEX
  8
0
 10
0.694228
 20
0.686686
 30
0.0
 40
0
 41
0
  0
VERTEX
  8
0
 10
0.678603
 20
0.706922
 30
0.0
 40
0
 41
0
  0
VERTEX
  8
0
 10
0.676867
 20
0.708768
 30
0.0
 40
0
 41
0
  0
VERTEX
  8
0
 10
0.675131
 20
0.710613
 30
0.0
 40
0
 41
0
  0
VERTEX
  8
0
 10
0.668078
 20
0.721951
 30
0.0
 40
0
 41
0
  0
VERTEX
  8
0
 10
0.659017
 20
0.729601
 30
0.0
 40
0
 41
0
  0
VERTEX
  8
0
 10
0.656033
 20
0.729601
 30
0.0
 40
0
 41
0
  0
VERTEX
  8
0
 10
0.652669
 20
0.729601
 30
0.0
 40
0
 41
0
  0
VERTEX
  8
0
 10
0.621203
 20
0.720324
 30
0.0
 40
0
 41
0
  0
VERTEX
  8
0
 10
0.618435
 20
0.718533
 30
0.0
 40
0
 41
0
  0
VERTEX
  8
0
 10
0.617133
 20
0.717719
 30
0.0
 40
0
 41
0
  0
VERTEX
  8
0
 10
0.605686
 20
0.707628
 30
0.0
 40
0
 41
0
  0
VERTEX
  8
0
 10
0.60471
 20
0.706435
 30
0.0
 40
0
 41
0
  0
VERTEX
  8
0
 10
0.601725
 20
0.702963
 30
0.0
 40
0
 41
0
  0
VERTEX
  8
0
 10
0.572754
 20
0.667318
 30
0.0
 40
0
 41
0
  0
VERTEX
  8
0
 10
0.569879
 20
0.663738
 30
0.0
 40
0
 41
0
  0
VERTEX
  8
0
 10
0.569174
 20
0.662978
 30
0.0
 40
0
 41
0
  0
VERTEX
  8
0
 10
0.567383
 20
0.654025
 30
0.0
 40
0
 41
0
  0
VERTEX
  8
0
 10
0.568414
 20
0.653321
 30
0.0
 40
0
 41
0
  0
VERTEX
  8
0
 10
0.57194
 20
0.650662
 30
0.0
 40
0
 41
0
  0
VERTEX
  8
0
 10
0.581054
 20
0.640354
 30
0.0
 40
0
 41
0
  0
VERTEX
  8
0
 10
0.592231
 20
0.626411
 30
0.0
 40
0
 41
0
  0
VERTEX
  8
0
 10
0.605686
 20
0.616265
 30
0.0
 40
0
 41
0
  0
VERTEX
  8
0
 10
0.620389
 20
0.613769
 30
0.0
 40
0
 41
0
  0
VERTEX
  8
0
 10
0.625
 20
0.614583
 30
0.0
 40
0
 41
0
  0
VERTEX
  8
0
 10
0.627333
 20
0.615018
 30
0.0
 40
0
 41
0
  0
VERTEX
  8
0
 10
0.638456
 20
0.612304
 30
0.0
 40
0
 41
0
  0
VERTEX
  8
0
 10
0.646647
 20
0.604329
 30
0.0
 40
0
 41
0
  0
VERTEX
  8
0
 10
0.647624
 20
0.602106
 30
0.0
 40
0
 41
0
  0
VERTEX
  8
0
 10
0.648817
 20
0.599718
 30
0.0
 40
0
 41
0
  0
VERTEX
  8
0
 10
0.651367
 20
0.587782
 30
0.0
 40
0
 41
0
  0
VERTEX
  8
0
 10
0.646431
 20
0.576768
 30
0.0
 40
0
 41
0
  0
VERTEX
  8
0
 10
0.643881
 20
0.574815
 30
0.0
 40
0
 41
0
  0
VERTEX
  8
0
 10
0.6435
 20
0.573947
 30
0.0
 40
0
 41
0
  0
VERTEX
  8
0
 10
0.636339
 20
0.568631
 30
0.0
 40
0
 41
0
  0
VERTEX
  8
0
 10
0.635417
 20
0.568522
 30
0.0
 40
0
 41
0
  0
VERTEX
  8
0
 10
0.630697
 20
0.567329
 30
0.0
 40
0
 41
0
  0
VERTEX
  8
0
 10
0.612468
 20
0.567546
 30
0.0
 40
0
 41
0
  0
VERTEX
  8
0
 10
0.602701
 20
0.577582
 30
0.0
 40
0
 41
0
  0
VERTEX
  8
0
 10
0.602214
 20
0.581272
 30
0.0
 40
0
 41
0
  0
VERTEX
  8
0
 10
0.601454
 20
0.587619
 30
0.0
 40
0
 41
0
  0
VERTEX
  8
0
 10
0.588162
 20
0.611763
 30
0.0
 40
0
 41
0
  0
VERTEX
  8
0
 10
0.569336
 20
0.631511
 30
0.0
 40
0
 41
0
  0
VERTEX
  8
0
 10
0.56581
 20
0.635633
 30
0.0
 40
0
 41
0
  0
VERTEX
  8
0
 10
0.564399
 20
0.637532
 30
0.0
 40
0
 41
0
  0
VERTEX
  8
0
 10
0.554796
 20
0.642958
 30
0.0
 40
0
 41
0
  0
VERTEX
  8
0
 10
0.543728
 20
0.642524
 30
0.0
 40
0
 41
0
  0
VERTEX
  8
0
 10
0.541667
 20
0.641439
 30
0.0
 40
0
 41
0
  0
VERTEX
  8
0
 10
0.538519
 20
0.6403
 30
0.0
 40
0
 41
0
  0
VERTEX
  8
0
 10
0.506511
 20
0.631619
 30
0.0
 40
0
 41
0
  0
VERTEX
  8
0
 10
0.503256
 20
0.631022
 30
0.0
 40
0
 41
0
  0
VERTEX
  8
0
 10
0.498643
 20
0.630262
 30
0.0
 40
0
 41
0
  0
VERTEX
  8
0
 10
0.477539
 20
0.621311
 30
0.0
 40
0
 41
0
  0
VERTEX
  8
0
 10
0.460232
 20
0.606392
 30
0.0
 40
0
 41
0
  0
VERTEX
  8
0
 10
0.457519
 20
0.602593
 30
0.0
 40
0
 41
0
  0
VERTEX
  8
0
 10
0.45535
 20
0.599881
 30
0.0
 40
0
 41
0
  0
VERTEX
  8
0
 10
0.450683
 20
0.590332
 30
0.0
 40
0
 41
0
  0
VERTEX
  8
0
 10
0.457682
 20
0.583333
 30
0.0
 40
0
 41
0
  0
VERTEX
  8
0
 10
0.460504
 20
0.58176
 30
0.0
 40
0
 41
0
  0
VERTEX
  8
0
 10
0.46365
 20
0.580024
 30
0.0
 40
0
 41
0
  0
VERTEX
  8
0
 10
0.493435
 20
0.56581
 30
0.0
 40
0
 41
0
  0
VERTEX
  8
0
 10
0.496365
 20
0.564182
 30
0.0
 40
0
 41
0
  0
VERTEX
  8
0
 10
0.498753
 20
0.562717
 30
0.0
 40
0
 41
0
  0
VERTEX
  8
0
 10
0.525228
 20
0.562717
 30
0.0
 40
0
 41
0
  0
VERTEX
  8
0
 10
0.527615
 20
0.564182
 30
0.0
 40
0
 41
0
  0
VERTEX
  8
0
 10
0.531847
 20
0.566461
 30
0.0
 40
0
 41
0
  0
VERTEX
  8
0
 10
0.553982
 20
0.565918
 30
0.0
 40
0
 41
0
  0
VERTEX
  8
0
 10
0.571126
 20
0.551921
 30
0.0
 40
0
 41
0
  0
VERTEX
  8
0
 10
0.572917
 20
0.547418
 30
0.0
 40
0
 41
0
  0
VERTEX
  8
0
 10
0.574544
 20
0.543186
 30
0.0
 40
0
 41
0
  0
VERTEX
  8
0
 10
0.572917
 20
0.521918
 30
0.0
 40
0
 41
0
  0
VERTEX
  8
0
 10
0.560058
 20
0.504937
 30
0.0
 40
0
 41
0
  0
VERTEX
  8
0
 10
0.556044
 20
0.502821
 30
0.0
 40
0
 41
0
  0
VERTEX
  8
0
 10
0.55154
 20
0.500976
 30
0.0
 40
0
 41
0
  0
VERTEX
  8
0
 10
0.527994
 20
0.502388
 30
0.0
 40
0
 41
0
  0
VERTEX
  8
0
 10
0.511447
 20
0.516818
 30
0.0
 40
0
 41
0
  0
VERTEX
  8
0
 10
0.510525
 20
0.521485
 30
0.0
 40
0
 41
0
  0
VERTEX
  8
0
 10
0.509549
 20
0.52615
 30
0.0
 40
0
 41
0
  0
VERTEX
  8
0
 10
0.498264
 20
0.541992
 30
0.0
 40
0
 41
0
  0
VERTEX
  8
0
 10
0.481717
 20
0.552029
 30
0.0
 40
0
 41
0
  0
VERTEX
  8
0
 10
0.478136
 20
0.553765
 30
0.0
 40
0
 41
0
  0
VERTEX
  8
0
 10
0.475803
 20
0.554904
 30
0.0
 40
0
 41
0
  0
VERTEX
  8
0
 10
0.452746
 20
0.566026
 30
0.0
 40
0
 41
0
  0
VERTEX
  8
0
 10
0.450521
 20
0.567165
 30
0.0
 40
0
 41
0
  0
VERTEX
  8
0
 10
0.448351
 20
0.568685
 30
0.0
 40
0
 41
0
  0
VERTEX
  8
0
 10
0.436089
 20
0.570747
 30
0.0
 40
0
 41
0
  0
VERTEX
  8
0
 10
0.42475
 20
0.565864
 30
0.0
 40
0
 41
0
  0
VERTEX
  8
0
 10
0.423014
 20
0.563857
 30
0.0
 40
0
 41
0
  0
VERTEX
  8
0
 10
0.414442
 20
0.554796
 30
0.0
 40
0
 41
0
  0
VERTEX
  8
0
 10
0.381131
 20
0.522894
 30
0.0
 40
0
 41
0
  0
VERTEX
  8
0
 10
0.356119
 20
0.503961
 30
0.0
 40
0
 41
0
  0
VERTEX
  8
0
 10
0.351779
 20
0.501357
 30
0.0
 40
0
 41
0
  0
VERTEX
  8
0
 10
0.353244
 20
0.496257
 30
0.0
 40
0
 41
0
  0
VERTEX
  8
0
 10
0.355306
 20
0.489258
 30
0.0
 40
0
 41
0
  0
VERTEX
  8
0
 10
0.373643
 20
0.458387
 30
0.0
 40
0
 41
0
  0
VERTEX
  8
0
 10
0.400987
 20
0.435113
 30
0.0
 40
0
 41
0
  0
VERTEX
  8
0
 10
0.407607
 20
0.431858
 30
0.0
 40
0
 41
0
  0
VERTEX
  8
0
 10
0.409289
 20
0.434244
 30
0.0
 40
0
 41
0
  0
VERTEX
  8
0
 10
0.409831
 20
0.435058
 30
0.0
 40
0
 41
0
  0
VERTEX
  8
0
 10
0.415636
 20
0.442817
 30
0.0
 40
0
 41
0
  0
VERTEX
  8
0
 10
0.416233
 20
0.443522
 30
0.0
 40
0
 41
0
  0
VERTEX
  8
0
 10
0.418837
 20
0.44694
 30
0.0
 40
0
 41
0
  0
VERTEX
  8
0
 10
0.429688
 20
0.464464
 30
0.0
 40
0
 41
0
  0
VERTEX
  8
0
 10
0.432129
 20
0.485243
 30
0.0
 40
0
 41
0
  0
VERTEX
  8
0
 10
0.430501
 20
0.490289
 30
0.0
 40
0
 41
0
  0
VERTEX
  8
0
 10
0.430122
 20
0.491536
 30
0.0
 40
0
 41
0
  0
VERTEX
  8
0
 10
0.432508
 20
0.503526
 30
0.0
 40
0
 41
0
  0
VERTEX
  8
0
 10
0.433322
 20
0.504503
 30
0.0
 40
0
 41
0
  0
VERTEX
  8
0
 10
0.434733
 20
0.506401
 30
0.0
 40
0
 41
0
  0
VERTEX
  8
0
 10
0.45459
 20
0.517144
 30
0.0
 40
0
 41
0
  0
VERTEX
  8
0
 10
0.456976
 20
0.517307
 30
0.0
 40
0
 41
0
  0
VERTEX
  8
0
 10
0.460232
 20
0.517469
 30
0.0
 40
0
 41
0
  0
VERTEX
  8
0
 10
0.474718
 20
0.511882
 30
0.0
 40
0
 41
0
  0
VERTEX
  8
0
 10
0.484321
 20
0.499675
 30
0.0
 40
0
 41
0
  0
VERTEX
  8
0
 10
0.485189
 20
0.496474
 30
0.0
 40
0
 41
0
  0
VERTEX
  8
0
 10
0.48584
 20
0.494249
 30
0.0
 40
0
 41
0
  0
VERTEX
  8
0
 10
0.482856
 20
0.472222
 30
0.0
 40
0
 41
0
  0
VERTEX
  8
0
 10
0.481662
 20
0.470215
 30
0.0
 40
0
 41
0
  0
VERTEX
  8
0
 10
0.480957
 20
0.469129
 30
0.0
 40
0
 41
0
  0
VERTEX
  8
0
 10
0.470324
 20
0.462782
 30
0.0
 40
0
 41
0
  0
VERTEX
  8
0
 10
0.469075
 20
0.462619
 30
0.0
 40
0
 41
0
  0
VERTEX
  8
0
 10
0.464247
 20
0.462131
 30
0.0
 40
0
 41
0
  0
VERTEX
  8
0
 10
0.447374
 20
0.4528
 30
0.0
 40
0
 41
0
  0
VERTEX
  8
0
 10
0.435981
 20
0.437608
 30
0.0
 40
0
 41
0
  0
VERTEX
  8
0
 10
0.433974
 20
0.43419
 30
0.0
 40
0
 41
0
  0
VERTEX
  8
0
 10
0.433431
 20
0.433376
 30
0.0
 40
0
 41
0
  0
VERTEX
  8
0
 10
0.428494
 20
0.425456
 30
0.0
 40
0
 41
0
  0
VERTEX
  8
0
 10
0.428006
 20
0.424696
 30
0.0
 40
0
 41
0
  0
VERTEX
  8
0
 10
0.4273
 20
0.423774
 30
0.0
 40
0
 41
0
  0
VERTEX
  8
0
 10
0.433594
 20
0.421875
 30
0.0
 40
0
 41
0
  0
VERTEX
  8
0
 10
0.465983
 20
0.418565
 30
0.0
 40
0
 41
0
  0
VERTEX
  8
0
 10
0.498156
 20
0.423503
 30
0.0
 40
0
 41
0
  0
VERTEX
  8
0
 10
0.504394
 20
0.425726
 30
0.0
 40
0
 41
0
  0
VERTEX
  8
0
 10
0.512369
 20
0.428549
 30
0.0
 40
0
 41
0
  0
VERTEX
  8
0
 10
0.518935
 20
0.422906
 30
0.0
 40
0
 41
0
  0
VERTEX
  8
0
 10
0.530544
 20
0.413465
 30
0.0
 40
0
 41
0
  0
VERTEX
  8
0
 10
0.572211
 20
0.393337
 30
0.0
 40
0
 41
0
  0
VERTEX
  8
0
 10
0.630751
 20
0.384224
 30
0.0
 40
0
 41
0
  0
VERTEX
  8
0
 10
0.688857
 20
0.395508
 30
0.0
 40
0
 41
0
  0
VERTEX
  8
0
 10
0.729764
 20
0.41721
 30
0.0
 40
0
 41
0
  0
VERTEX
  8
0
 10
0.741049
 20
0.427083
 30
0.0
 40
0
 41
0
  0
VERTEX
  8
0
 10
0.743653
 20
0.429363
 30
0.0
 40
0
 41
0
  0
VERTEX
  8
0
 10
0.716362
 20
0.454807
 30
0.0
 40
0
 41
0
  0
VERTEX
  8
0
 10
0.715603
 20
0.455729
 30
0.0
 40
0
 41
0
  0
VERTEX
  8
0
 10
0.705404
 20
0.460613
 30
0.0
 40
0
 41
0
  0
VERTEX
  8
0
 10
0.704264
 20
0.460613
 30
0.0
 40
0
 41
0
  0
VERTEX
  8
0
 10
0.699869
 20
0.460069
 30
0.0
 40
0
 41
0
  0
VERTEX
  8
0
 10
0.686415
 20
0.460178
 30
0.0
 40
0
 41
0
  0
VERTEX
  8
0
 10
0.668565
 20
0.460069
 30
0.0
 40
0
 41
0
  0
VERTEX
  8
0
 10
0.651693
 20
0.455513
 30
0.0
 40
0
 41
0
  0
VERTEX
  8
0
 10
0.639703
 20
0.445801
 30
0.0
 40
0
 41
0
  0
VERTEX
  8
0
 10
0.63699
 20
0.441678
 30
0.0
 40
0
 41
0
  0
VERTEX
  8
0
 10
0.634765
 20
0.438422
 30
0.0
 40
0
 41
0
  0
VERTEX
  8
0
 10
0.616971
 20
0.432346
 30
0.0
 40
0
 41
0
  0
VERTEX
  8
0
 10
0.598036
 20
0.43826
 30
0.0
 40
0
 41
0
  0
VERTEX
  8
0
 10
0.595324
 20
0.440918
 30
0.0
 40
0
 41
0
  0
VERTEX
  8
0
 10
0.592231
 20
0.443685
 30
0.0
 40
0
 41
0
  0
VERTEX
  8
0
 10
0.585232
 20
0.461535
 30
0.0
 40
0
 41
0
  0
VERTEX
  8
0
 10
0.589899
 20
0.480143
 30
0.0
 40
0
 41
0
  0
VERTEX
  8
0
 10
0.592611
 20
0.483236
 30
0.0
 40
0
 41
0
  0
VERTEX
  8
0
 10
0.595215
 20
0.486328
 30
0.0
 40
0
 41
0
  0
VERTEX
  8
0
 10
0.613444
 20
0.494683
 30
0.0
 40
0
 41
0
  0
VERTEX
  8
0
 10
0.631674
 20
0.490614
 30
0.0
 40
0
 41
0
  0
VERTEX
  8
0
 10
0.634278
 20
0.487522
 30
0.0
 40
0
 41
0
  0
VERTEX
  8
0
 10
0.637153
 20
0.483886
 30
0.0
 40
0
 41
0
  0
VERTEX
  8
0
 10
0.652724
 20
0.475803
 30
0.0
 40
0
 41
0
  0
VERTEX
  8
0
 10
0.669706
 20
0.475803
 30
0.0
 40
0
 41
0
  0
VERTEX
  8
0
 10
0.67334
 20
0.476129
 30
0.0
 40
0
 41
0
  0
VERTEX
  8
0
 10
0.675401
 20
0.476346
 30
0.0
 40
0
 41
0
  0
VERTEX
  8
0
 10
0.696072
 20
0.477756
 30
0.0
 40
0
 41
0
  0
VERTEX
  8
0
 10
0.698133
 20
0.47781
 30
0.0
 40
0
 41
0
  0
VERTEX
  8
0
 10
0.701118
 20
0.47781
 30
0.0
 40
0
 41
0
  0
VERTEX
  8
0
 10
0.709472
 20
0.481392
 30
0.0
 40
0
 41
0
  0
VERTEX
  8
0
 10
0.710124
 20
0.482585
 30
0.0
 40
0
 41
0
  0
VERTEX
  8
0
 10
0.711751
 20
0.486057
 30
0.0
 40
0
 41
0
  0
VERTEX
  8
0
 10
0.718317
 20
0.495551
 30
0.0
 40
0
 41
0
  0
VERTEX
  8
0
 10
0.727322
 20
0.508192
 30
0.0
 40
0
 41
0
  0
VERTEX
  8
0
 10
0.73291
 20
0.52219
 30
0.0
 40
0
 41
0
  0
VERTEX
  8
0
 10
0.732368
 20
0.535265
 30
0.0
 40
0
 41
0
  0
VERTEX
  8
0
 10
0.730957
 20
0.539063
 30
0.0
 40
0
 41
0
  0
VERTEX
  8
0
 10
0.730578
 20
0.540474
 30
0.0
 40
0
 41
0
  0
VERTEX
  8
0
 10
0.733832
 20
0.553549
 30
0.0
 40
0
 41
0
  0
VERTEX
  8
0
 10
0.73481
 20
0.554579
 30
0.0
 40
0
 41
0
  0
VERTEX
  8
0
 10
0.736274
 20
0.556803
 30
0.0
 40
0
 41
0
  0
VERTEX
  8
0
 10
0.74669
 20
0.563693
 30
0.0
 40
0
 41
0
  0
VERTEX
  8
0
 10
0.759169
 20
0.564615
 30
0.0
 40
0
 41
0
  0
VERTEX
  8
0
 10
0.761664
 20
0.563747
 30
0.0
 40
0
 41
0
  0
VERTEX
  8
0
 10
0.763889
 20
0.563043
 30
0.0
 40
0
 41
0
  0
VERTEX
  8
0
 10
0.772732
 20
0.555826
 30
0.0
 40
0
 41
0
  0
VERTEX
  8
0
 10
0.777181
 20
0.545301
 30
0.0
 40
0
 41
0
  0
VERTEX
  8
0
 10
0.777289
 20
0.542914
 30
0.0
 40
0
 41
0
  0
VERTEX
  8
0
 10
0.777669
 20
0.540201
 30
0.0
 40
0
 41
0
  0
VERTEX
  8
0
 10
0.7736
 20
0.52794
 30
0.0
 40
0
 41
0
  0
VERTEX
  8
0
 10
0.763129
 20
0.520344
 30
0.0
 40
0
 41
0
  0
VERTEX
  8
0
 10
0.760417
 20
0.519911
 30
0.0
 40
0
 41
0
  0
VERTEX
  8
0
 10
0.756565
 20
0.519694
 30
0.0
 40
0
 41
0
  0
VERTEX
  8
0
 10
0.743924
 20
0.512696
 30
0.0
 40
0
 41
0
  0
VERTEX
  8
0
 10
0.735894
 20
0.501465
 30
0.0
 40
0
 41
0
  0
VERTEX
  8
0
 10
0.734375
 20
0.499078
 30
0.0
 40
0
 41
0
  0
VERTEX
  8
0
 10
0.733778
 20
0.498101
 30
0.0
 40
0
 41
0
  0
VERTEX
  8
0
 10
0.727756
 20
0.488282
 30
0.0
 40
0
 41
0
  0
VERTEX
  8
0
 10
0.727106
 20
0.487304
 30
0.0
 40
0
 41
0
  0
VERTEX
  8
0
 10
0.725586
 20
0.485135
 30
0.0
 40
0
 41
0
  0
VERTEX
  8
0
 10
0.724881
 20
0.474718
 30
0.0
 40
0
 41
0
  0
VERTEX
  8
0
 10
0.731662
 20
0.465007
 30
0.0
 40
0
 41
0
  0
VERTEX
  8
0
 10
0.733942
 20
0.463108
 30
0.0
 40
0
 41
0
  0
VERTEX
  8
0
 10
0.736546
 20
0.460938
 30
0.0
 40
0
 41
0
  0
VERTEX
  8
0
 10
0.758356
 20
0.437879
 30
0.0
 40
0
 41
0
  0
VERTEX
  8
0
 10
0.76096
 20
0.435547
 30
0.0
 40
0
 41
0
  0
VERTEX
  8
0
 10
0.762207
 20
0.434407
 30
0.0
 40
0
 41
0
  0
VERTEX
  8
0
 10
0.780979
 20
0.419433
 30
0.0
 40
0
 41
0
  0
VERTEX
  8
0
 10
0.782607
 20
0.41824
 30
0.0
 40
0
 41
0
  0
VERTEX
  8
0
 10
0.784289
 20
0.41786
 30
0.0
 40
0
 41
0
  0
VERTEX
  8
0
 10
0.80165
 20
0.416667
 30
0.0
 40
0
 41
0
  0
VERTEX
  8
0
 10
0.80344
 20
0.416775
 30
0.0
 40
0
 41
0
  0
VERTEX
  8
0
 10
0.809299
 20
0.417101
 30
0.0
 40
0
 41
0
  0
VERTEX
  8
0
 10
0.826768
 20
0.422743
 30
0.0
 40
0
 41
0
  0
VERTEX
  8
0
 10
0.845378
 20
0.436632
 30
0.0
 40
0
 41
0
  0
VERTEX
  8
0
 10
0.857476
 20
0.456543
 30
0.0
 40
0
 41
0
  0
VERTEX
  8
0
 10
0.861382
 20
0.474447
 30
0.0
 40
0
 41
0
  0
VERTEX
  8
0
 10
0.861165
 20
0.480306
 30
0.0
 40
0
 41
0
  0
VERTEX
  8
0
 10
0.861003
 20
0.48215
 30
0.0
 40
0
 41
0
  0
VERTEX
  8
0
 10
0.855578
 20
0.499567
 30
0.0
 40
0
 41
0
  0
VERTEX
  8
0
 10
0.85471
 20
0.501139
 30
0.0
 40
0
 41
0
  0
VERTEX
  8
0
 10
0.849881
 20
0.509711
 30
0.0
 40
0
 41
0
  0
VERTEX
  8
0
 10
0.855957
 20
0.517524
 30
0.0
 40
0
 41
0
  0
VERTEX
  8
0
 10
0.860949
 20
0.523872
 30
0.0
 40
0
 41
0
  0
VERTEX
  8
0
 10
0.879394
 20
0.559462
 30
0.0
 40
0
 41
0
  0
VERTEX
  8
0
 10
0.888346
 20
0.598469
 30
0.0
 40
0
 41
0
  0
VERTEX
  8
0
 10
0.888672
 20
0.606554
 30
0.0
 40
0
 41
0
  0
SEQEND
 8
0
  0
POLYLINE
  8
0
 62
     142
 66
     1
 10
0
 20
0
 30
0.0
 70
     1
 40
0
 41
0
  0
VERTEX
  8
0
 10
0.555935
 20
0.534506
 30
0.0
 40
0
 41
0
  0
VERTEX
  8
0
 10
0.556099
 20
0.536567
 30
0.0
 40
0
 41
0
  0
VERTEX
  8
0
 10
0.552408
 20
0.545247
 30
0.0
 40
0
 41
0
  0
VERTEX
  8
0
 10
0.544325
 20
0.550185
 30
0.0
 40
0
 41
0
  0
VERTEX
  8
0
 10
0.542318
 20
0.550293
 30
0.0
 40
0
 41
0
  0
VERTEX
  8
0
 10
0.539931
 20
0.550618
 30
0.0
 40
0
 41
0
  0
VERTEX
  8
0
 10
0.529839
 20
0.546278
 30
0.0
 40
0
 41
0
  0
VERTEX
  8
0
 10
0.524794
 20
0.536567
 30
0.0
 40
0
 41
0
  0
VERTEX
  8
0
 10
0.524903
 20
0.534179
 30
0.0
 40
0
 41
0
  0
VERTEX
  8
0
 10
0.524849
 20
0.532064
 30
0.0
 40
0
 41
0
  0
VERTEX
  8
0
 10
0.529351
 20
0.523329
 30
0.0
 40
0
 41
0
  0
VERTEX
  8
0
 10
0.538249
 20
0.519151
 30
0.0
 40
0
 41
0
  0
VERTEX
  8
0
 10
0.540419
 20
0.51926
 30
0.0
 40
0
 41
0
  0
VERTEX
  8
0
 10
0.542643
 20
0.518935
 30
0.0
 40
0
 41
0
  0
VERTEX
  8
0
 10
0.551975
 20
0.523004
 30
0.0
 40
0
 41
0
  0
VERTEX
  8
0
 10
0.556207
 20
0.532281
 30
0.0
 40
0
 41
0
  0
VERTEX
  8
0
 10
0.555935
 20
0.534506
 30
0.0
 40
0
 41
0
  0
SEQEND
 8
0
  0
POLYLINE
  8
0
 62
     142
 66
     1
 10
0
 20
0
 30
0.0
 70
     1
 40
0
 41
0
  0
VERTEX
  8
0
 10
0.601346
 20
0.466254
 30
0.0
 40
0
 41
0
  0
VERTEX
  8
0
 10
0.600965
 20
0.464139
 30
0.0
 40
0
 41
0
  0
VERTEX
  8
0
 10
0.60395
 20
0.45459
 30
0.0
 40
0
 41
0
  0
VERTEX
  8
0
 10
0.611817
 20
0.448406
 30
0.0
 40
0
 41
0
  0
VERTEX
  8
0
 10
0.613932
 20
0.447917
 30
0.0
 40
0
 41
0
  0
VERTEX
  8
0
 10
0.615776
 20
0.447754
 30
0.0
 40
0
 41
0
  0
VERTEX
  8
0
 10
0.62424
 20
0.450575
 30
0.0
 40
0
 41
0
  0
VERTEX
  8
0
 10
0.629992
 20
0.457357
 30
0.0
 40
0
 41
0
  0
VERTEX
  8
0
 10
0.630533
 20
0.459147
 30
0.0
 40
0
 41
0
  0
VERTEX
  8
0
 10
0.630751
 20
0.461262
 30
0.0
 40
0
 41
0
  0
VERTEX
  8
0
 10
0.627604
 20
0.470649
 30
0.0
 40
0
 41
0
  0
VERTEX
  8
0
 10
0.619846
 20
0.476779
 30
0.0
 40
0
 41
0
  0
VERTEX
  8
0
 10
0.617839
 20
0.477268
 30
0.0
 40
0
 41
0
  0
VERTEX
  8
0
 10
0.61594
 20
0.477593
 30
0.0
 40
0
 41
0
  0
VERTEX
  8
0
 10
0.607368
 20
0.475043
 30
0.0
 40
0
 41
0
  0
VERTEX
  8
0
 10
0.601779
 20
0.468153
 30
0.0
 40
0
 41
0
  0
VERTEX
  8
0
 10
0.601346
 20
0.466254
 30
0.0
 40
0
 41
0
  0
SEQEND
 8
0
  0
POLYLINE
  8
0
 62
     142
 66
     1
 10
0
 20
0
 30
0.0
 70
     1
 40
0
 41
0
  0
VERTEX
  8
0
 10
0.752171
 20
0.53125
 30
0.0
 40
0
 41
0
  0
VERTEX
  8
0
 10
0.753851
 20
0.531033
 30
0.0
 40
0
 41
0
  0
VERTEX
  8
0
 10
0.763237
 20
0.540419
 30
0.0
 40
0
 41
0
  0
VERTEX
  8
0
 10
0.763456
 20
0.542481
 30
0.0
 40
0
 41
0
  0
VERTEX
  8
0
 10
0.763183
 20
0.543403
 30
0.0
 40
0
 41
0
  0
VERTEX
  8
0
 10
0.761176
 20
0.548503
 30
0.0
 40
0
 41
0
  0
VERTEX
  8
0
 10
0.756076
 20
0.551975
 30
0.0
 40
0
 41
0
  0
VERTEX
  8
0
 10
0.754394
 20
0.551975
 30
0.0
 40
0
 41
0
  0
VERTEX
  8
0
 10
0.752929
 20
0.552137
 30
0.0
 40
0
 41
0
  0
VERTEX
  8
0
 10
0.74669
 20
0.549696
 30
0.0
 40
0
 41
0
  0
VERTEX
  8
0
 10
0.743001
 20
0.544054
 30
0.0
 40
0
 41
0
  0
VERTEX
  8
0
 10
0.742893
 20
0.542589
 30
0.0
 40
0
 41
0
  0
VERTEX
  8
0
 10
0.742731
 20
0.541178
 30
0.0
 40
0
 41
0
  0
VERTEX
  8
0
 10
0.75076
 20
0.531412
 30
0.0
 40
0
 41
0
  0
VERTEX
  8
0
 10
0.752171
 20
0.53125
 30
0.0
 40
0
 41
0
  0
SEQEND
 8
0
  0
POLYLINE
  8
0
 62
     142
 66
     1
 10
0
 20
0
 30
0.0
 70
     1
 40
0
 41
0
  0
VERTEX
  8
0
 10
0.467936
 20
0.481228
 30
0.0
 40
0
 41
0
  0
VERTEX
  8
0
 10
0.468479
 20
0.48215
 30
0.0
 40
0
 41
0
  0
VERTEX
  8
0
 10
0.469347
 20
0.492242
 30
0.0
 40
0
 41
0
  0
VERTEX
  8
0
 10
0.468967
 20
0.493218
 30
0.0
 40
0
 41
0
  0
VERTEX
  8
0
 10
0.468425
 20
0.49414
 30
0.0
 40
0
 41
0
  0
VERTEX
  8
0
 10
0.46034
 20
0.499838
 30
0.0
 40
0
 41
0
  0
VERTEX
  8
0
 10
0.459364
 20
0.5
 30
0.0
 40
0
 41
0
  0
VERTEX
  8
0
 10
0.457411
 20
0.5
 30
0.0
 40
0
 41
0
  0
VERTEX
  8
0
 10
0.456054
 20
0.5
 30
0.0
 40
0
 41
0
  0
VERTEX
  8
0
 10
0.452474
 20
0.498589
 30
0.0
 40
0
 41
0
  0
VERTEX
  8
0
 10
0.452094
 20
0.498318
 30
0.0
 40
0
 41
0
  0
VERTEX
  8
0
 10
0.451389
 20
0.497831
 30
0.0
 40
0
 41
0
  0
VERTEX
  8
0
 10
0.447319
 20
0.491049
 30
0.0
 40
0
 41
0
  0
VERTEX
  8
0
 10
0.447211
 20
0.490235
 30
0.0
 40
0
 41
0
  0
VERTEX
  8
0
 10
0.447049
 20
0.489637
 30
0.0
 40
0
 41
0
  0
VERTEX
  8
0
 10
0.448188
 20
0.483561
 30
0.0
 40
0
 41
0
  0
VERTEX
  8
0
 10
0.448568
 20
0.483018
 30
0.0
 40
0
 41
0
  0
VERTEX
  8
0
 10
0.449056
 20
0.482368
 30
0.0
 40
0
 41
0
  0
VERTEX
  8
0
 10
0.456108
 20
0.478569
 30
0.0
 40
0
 41
0
  0
VERTEX
  8
0
 10
0.456976
 20
0.478461
 30
0.0
 40
0
 41
0
  0
VERTEX
  8
0
 10
0.457954
 20
0.47819
 30
0.0
 40
0
 41
0
  0
VERTEX
  8
0
 10
0.467176
 20
0.480578
 30
0.0
 40
0
 41
0
  0
VERTEX
  8
0
 10
0.467936
 20
0.481228
 30
0.0
 40
0
 41
0
  0
SEQEND
 8
0
  0
POLYLINE
  8
0
 62
     142
 66
     1
 10
0
 20
0
 30
0.0
 70
     1
 40
0
 41
0
  0
VERTEX
  8
0
 10
0.419814
 20
0.745931
 30
0.0
 40
0
 41
0
  0
VERTEX
  8
0
 10
0.419596
 20
0.743869
 30
0.0
 40
0
 41
0
  0
VERTEX
  8
0
 10
0.423286
 20
0.734918
 30
0.0
 40
0
 41
0
  0
VERTEX
  8
0
 10
0.43164
 20
0.729926
 30
0.0
 40
0
 41
0
  0
VERTEX
  8
0
 10
0.433757
 20
0.729818
 30
0.0
 40
0
 41
0
  0
VERTEX
  8
0
 10
0.435872
 20
0.729492
 30
0.0
 40
0
 41
0
  0
VERTEX
  8
0
 10
0.445204
 20
0.732801
 30
0.0
 40
0
 41
0
  0
VERTEX
  8
0
 10
0.450521
 20
0.741211
 30
0.0
 40
0
 41
0
  0
VERTEX
  8
0
 10
0.450629
 20
0.743326
 30
0.0
 40
0
 41
0
  0
VERTEX
  8
0
 10
0.451064
 20
0.745443
 30
0.0
 40
0
 41
0
  0
VERTEX
  8
0
 10
0.448188
 20
0.754719
 30
0.0
 40
0
 41
0
  0
VERTEX
  8
0
 10
0.440212
 20
0.760254
 30
0.0
 40
0
 41
0
  0
VERTEX
  8
0
 10
0.438151
 20
0.760417
 30
0.0
 40
0
 41
0
  0
VERTEX
  8
0
 10
0.435818
 20
0.76096
 30
0.0
 40
0
 41
0
  0
VERTEX
  8
0
 10
0.425456
 20
0.757596
 30
0.0
 40
0
 41
0
  0
VERTEX
  8
0
 10
0.419814
 20
0.748372
 30
0.0
 40
0
 41
0
  0
VERTEX
  8
0
 10
0.419814
 20
0.745931
 30
0.0
 40
0
 41
0
  0
SEQEND
 8
0
  0
POLYLINE
  8
0
 62
     142
 66
     1
 10
0
 20
0
 30
0.0
 70
     1
 40
0
 41
0
  0
VERTEX
  8
0
 10
0.295301
 20
0.679579
 30
0.0
 40
0
 41
0
  0
VERTEX
  8
0
 10
0.294976
 20
0.678114
 30
0.0
 40
0
 41
0
  0
VERTEX
  8
0
 10
0.2972
 20
0.671442
 30
0.0
 40
0
 41
0
  0
VERTEX
  8
0
 10
0.30306
 20
0.667481
 30
0.0
 40
0
 41
0
  0
VERTEX
  8
0
 10
0.304579
 20
0.667318
 30
0.0
 40
0
 41
0
  0
VERTEX
  8
0
 10
0.307292
 20
0.667318
 30
0.0
 40
0
 41
0
  0
VERTEX
  8
0
 10
0.315375
 20
0.674263
 30
0.0
 40
0
 41
0
  0
VERTEX
  8
0
 10
0.315539
 20
0.675726
 30
0.0
 40
0
 41
0
  0
VERTEX
  8
0
 10
0.31581
 20
0.6773
 30
0.0
 40
0
 41
0
  0
VERTEX
  8
0
 10
0.313476
 20
0.68419
 30
0.0
 40
0
 41
0
  0
VERTEX
  8
0
 10
0.3074
 20
0.688097
 30
0.0
 40
0
 41
0
  0
VERTEX
  8
0
 10
0.305826
 20
0.688151
 30
0.0
 40
0
 41
0
  0
VERTEX
  8
0
 10
0.304471
 20
0.688314
 30
0.0
 40
0
 41
0
  0
VERTEX
  8
0
 10
0.29541
 20
0.680935
 30
0.0
 40
0
 41
0
  0
VERTEX
  8
0
 10
0.295301
 20
0.679579
 30
0.0
 40
0
 41
0
  0
SEQEND
 8
0
  0
POLYLINE
  8
0
 62
     142
 66
     1
 10
0
 20
0
 30
0.0
 70
     1
 40
0
 41
0
  0
VERTEX
  8
0
 10
0.502929
 20
0.866754
 30
0.0
 40
0
 41
0
  0
VERTEX
  8
0
 10
0.500435
 20
0.866754
 30
0.0
 40
0
 41
0
  0
VERTEX
  8
0
 10
0.498969
 20
0.86659
 30
0.0
 40
0
 41
0
  0
VERTEX
  8
0
 10
0.493815
 20
0.862468
 30
0.0
 40
0
 41
0
  0
VERTEX
  8
0
 10
0.492567
 20
0.855957
 30
0.0
 40
0
 41
0
  0
VERTEX
  8
0
 10
0.49311
 20
0.854601
 30
0.0
 40
0
 41
0
  0
VERTEX
  8
0
 10
0.493218
 20
0.85395
 30
0.0
 40
0
 41
0
  0
VERTEX
  8
0
 10
0.49669
 20
0.848144
 30
0.0
 40
0
 41
0
  0
VERTEX
  8
0
 10
0.497287
 20
0.847711
 30
0.0
 40
0
 41
0
  0
VERTEX
  8
0
 10
0.497939
 20
0.847439
 30
0.0
 40
0
 41
0
  0
VERTEX
  8
0
 10
0.504775
 20
0.847439
 30
0.0
 40
0
 41
0
  0
VERTEX
  8
0
 10
0.505425
 20
0.847711
 30
0.0
 40
0
 41
0
  0
VERTEX
  8
0
 10
0.506728
 20
0.84809
 30
0.0
 40
0
 41
0
  0
VERTEX
  8
0
 10
0.512315
 20
0.851671
 30
0.0
 40
0
 41
0
  0
VERTEX
  8
0
 10
0.514378
 20
0.858018
 30
0.0
 40
0
 41
0
  0
VERTEX
  8
0
 10
0.513943
 20
0.8597
 30
0.0
 40
0
 41
0
  0
VERTEX
  8
0
 10
0.513564
 20
0.860894
 30
0.0
 40
0
 41
0
  0
VERTEX
  8
0
 10
0.504124
 20
0.866917
 30
0.0
 40
0
 41
0
  0
VERTEX
  8
0
 10
0.502929
 20
0.866754
 30
0.0
 40
0
 41
0
  0
SEQEND
 8
0
  0
POLYLINE
  8
0
 62
     142
 66
     1
 10
0
 20
0
 30
0.0
 70
     1
 40
0
 41
0
  0
VERTEX
  8
0
 10
0.806044
 20
0.648329
 30
0.0
 40
0
 41
0
  0
VERTEX
  8
0
 10
0.805718
 20
0.646104
 30
0.0
 40
0
 41
0
  0
VERTEX
  8
0
 10
0.810818
 20
0.638075
 30
0.0
 40
0
 41
0
  0
VERTEX
  8
0
 10
0.820258
 20
0.63699
 30
0.0
 40
0
 41
0
  0
VERTEX
  8
0
 10
0.822157
 20
0.638237
 30
0.0
 40
0
 41
0
  0
VERTEX
  8
0
 10
0.824001
 20
0.639486
 30
0.0
 40
0
 41
0
  0
VERTEX
  8
0
 10
0.826606
 20
0.648654
 30
0.0
 40
0
 41
0
  0
VERTEX
  8
0
 10
0.821126
 20
0.656413
 30
0.0
 40
0
 41
0
  0
VERTEX
  8
0
 10
0.818956
 20
0.656956
 30
0.0
 40
0
 41
0
  0
VERTEX
  8
0
 10
0.817383
 20
0.657553
 30
0.0
 40
0
 41
0
  0
VERTEX
  8
0
 10
0.810275
 20
0.655979
 30
0.0
 40
0
 41
0
  0
VERTEX
  8
0
 10
0.806099
 20
0.649957
 30
0.0
 40
0
 41
0
  0
VERTEX
  8
0
 10
0.806044
 20
0.648329
 30
0.0
 40
0
 41
0
  0
SEQEND
 8
0
  0
POLYLINE
  8
0
 62
     142
 66
     1
 10
0
 20
0
 30
0.0
 70
     1
 40
0
 41
0
  0
VERTEX
  8
0
 10
0.912815
 20
0.502821
 30
0.0
 40
0
 41
0
  0
VERTEX
  8
0
 10
0.923719
 20
0.520344
 30
0.0
 40
0
 41
0
  0
VERTEX
  8
0
 10
0.943251
 20
0.61735
 30
0.0
 40
0
 41
0
  0
VERTEX
  8
0
 10
0.916396
 20
0.712565
 30
0.0
 40
0
 41
0
  0
VERTEX
  8
0
 10
0.904189
 20
0.729167
 30
0.0
 40
0
 41
0
  0
VERTEX
  8
0
 10
0.904189
 20
0.733236
 30
0.0
 40
0
 41
0
  0
VERTEX
  8
0
 10
0.903592
 20
0.743924
 30
0.0
 40
0
 41
0
  0
VERTEX
  8
0
 10
0.903429
 20
0.745335
 30
0.0
 40
0
 41
0
  0
VERTEX
  8
0
 10
0.901801
 20
0.760688
 30
0.0
 40
0
 41
0
  0
VERTEX
  8
0
 10
0.887858
 20
0.805718
 30
0.0
 40
0
 41
0
  0
VERTEX
  8
0
 10
0.856174
 20
0.85791
 30
0.0
 40
0
 41
0
  0
VERTEX
  8
0
 10
0.810872
 20
0.898926
 30
0.0
 40
0
 41
0
  0
VERTEX
  8
0
 10
0.76926
 20
0.921169
 30
0.0
 40
0
 41
0
  0
VERTEX
  8
0
 10
0.754557
 20
0.925618
 30
0.0
 40
0
 41
0
  0
VERTEX
  8
0
 10
0.746528
 20
0.933811
 30
0.0
 40
0
 41
0
  0
VERTEX
  8
0
 10
0.719075
 20
0.955078
 30
0.0
 40
0
 41
0
  0
VERTEX
  8
0
 10
0.678928
 20
0.976671
 30
0.0
 40
0
 41
0
  0
VERTEX
  8
0
 10
0.635254
 20
0.989908
 30
0.0
 40
0
 41
0
  0
VERTEX
  8
0
 10
0.600803
 20
0.994249
 30
0.0
 40
0
 41
0
  0
VERTEX
  8
0
 10
0.589356
 20
0.99414
 30
0.0
 40
0
 41
0
  0
VERTEX
  8
0
 10
0.583658
 20
0.99414
 30
0.0
 40
0
 41
0
  0
VERTEX
  8
0
 10
0.568468
 20
0.993381
 30
0.0
 40
0
 41
0
  0
VERTEX
  8
0
 10
0.566569
 20
0.99311
 30
0.0
 40
0
 41
0
  0
VERTEX
  8
0
 10
0.561957
 20
0.992676
 30
0.0
 40
0
 41
0
  0
VERTEX
  8
0
 10
0.516818
 20
0.982964
 30
0.0
 40
0
 41
0
  0
VERTEX
  8
0
 10
0.512478
 20
0.981446
 30
0.0
 40
0
 41
0
  0
VERTEX
  8
0
 10
0.505208
 20
0.984538
 30
0.0
 40
0
 41
0
  0
VERTEX
  8
0
 10
0.44184
 20
1
 30
0.0
 40
0
 41
0
  0
VERTEX
  8
0
 10
0.420736
 20
1
 30
0.0
 40
0
 41
0
  0
VERTEX
  8
0
 10
0.415039
 20
1
 30
0.0
 40
0
 41
0
  0
VERTEX
  8
0
 10
0.399849
 20
0.99924
 30
0.0
 40
0
 41
0
  0
VERTEX
  8
0
 10
0.398004
 20
0.998969
 30
0.0
 40
0
 41
0
  0
VERTEX
  8
0
 10
0.386285
 20
0.997885
 30
0.0
 40
0
 41
0
  0
VERTEX
  8
0
 10
0.33024
 20
0.982422
 30
0.0
 40
0
 41
0
  0
VERTEX
  8
0
 10
0.279297
 20
0.954318
 30
0.0
 40
0
 41
0
  0
VERTEX
  8
0
 10
0.270182
 20
0.946886
 30
0.0
 40
0
 41
0
  0
VERTEX
  8
0
 10
0.255697
 20
0.945042
 30
0.0
 40
0
 41
0
  0
VERTEX
  8
0
 10
0.213325
 20
0.931858
 30
0.0
 40
0
 41
0
  0
VERTEX
  8
0
 10
0.162978
 20
0.903267
 30
0.0
 40
0
 41
0
  0
VERTEX
  8
0
 10
0.121473
 20
0.862901
 30
0.0
 40
0
 41
0
  0
VERTEX
  8
0
 10
0.096951
 20
0.8259
 30
0.0
 40
0
 41
0
  0
VERTEX
  8
0
 10
0.0911458
 20
0.8125
 30
0.0
 40
0
 41
0
  0
VERTEX
  8
0
 10
0.082845
 20
0.806586
 30
0.0
 40
0
 41
0
  0
VERTEX
  8
0
 10
0.0610351
 20
0.784397
 30
0.0
 40
0
 41
0
  0
VERTEX
  8
0
 10
0.0394965
 20
0.75
 30
0.0
 40
0
 41
0
  0
VERTEX
  8
0
 10
0.0273981
 20
0.711317
 30
0.0
 40
0
 41
0
  0
VERTEX
  8
0
 10
0.0246853
 20
0.680285
 30
0.0
 40
0
 41
0
  0
VERTEX
  8
0
 10
0.0256076
 20
0.670085
 30
0.0
 40
0
 41
0
  0
VERTEX
  8
0
 10
0.0264214
 20
0.661783
 30
0.0
 40
0
 41
0
  0
VERTEX
  8
0
 10
0.0381944
 20
0.622287
 30
0.0
 40
0
 41
0
  0
VERTEX
  8
0
 10
0.0596789
 20
0.587022
 30
0.0
 40
0
 41
0
  0
VERTEX
  8
0
 10
0.0653212
 20
0.580838
 30
0.0
 40
0
 41
0
  0
VERTEX
  8
0
 10
0.0653212
 20
0.577692
 30
0.0
 40
0
 41
0
  0
VERTEX
  8
0
 10
0.066786
 20
0.561957
 30
0.0
 40
0
 41
0
  0
VERTEX
  8
0
 10
0.0837131
 20
0.515787
 30
0.0
 40
0
 41
0
  0
VERTEX
  8
0
 10
0.123264
 20
0.466254
 30
0.0
 40
0
 41
0
  0
VERTEX
  8
0
 10
0.178982
 20
0.433376
 30
0.0
 40
0
 41
0
  0
VERTEX
  8
0
 10
0.229275
 20
0.421442
 30
0.0
 40
0
 41
0
  0
VERTEX
  8
0
 10
0.246039
 20
0.421442
 30
0.0
 40
0
 41
0
  0
VERTEX
  8
0
 10
0.250651
 20
0.421442
 30
0.0
 40
0
 41
0
  0
VERTEX
  8
0
 10
0.262913
 20
0.422254
 30
0.0
 40
0
 41
0
  0
VERTEX
  8
0
 10
0.264486
 20
0.422418
 30
0.0
 40
0
 41
0
  0
VERTEX
  8
0
 10
0.269314
 20
0.422851
 30
0.0
 40
0
 41
0
  0
VERTEX
  8
0
 10
0.316461
 20
0.434517
 30
0.0
 40
0
 41
0
  0
VERTEX
  8
0
 10
0.320964
 20
0.436361
 30
0.0
 40
0
 41
0
  0
VERTEX
  8
0
 10
0.326824
 20
0.427951
 30
0.0
 40
0
 41
0
  0
VERTEX
  8
0
 10
0.348633
 20
0.405544
 30
0.0
 40
0
 41
0
  0
VERTEX
  8
0
 10
0.382433
 20
0.382542
 30
0.0
 40
0
 41
0
  0
VERTEX
  8
0
 10
0.420736
 20
0.368218
 30
0.0
 40
0
 41
0
  0
VERTEX
  8
0
 10
0.45166
 20
0.36339
 30
0.0
 40
0
 41
0
  0
VERTEX
  8
0
 10
0.461968
 20
0.363444
 30
0.0
 40
0
 41
0
  0
VERTEX
  8
0
 10
0.463379
 20
0.363499
 30
0.0
 40
0
 41
0
  0
VERTEX
  8
0
 10
0.477701
 20
0.364421
 30
0.0
 40
0
 41
0
  0
VERTEX
  8
0
 10
0.479167
 20
0.364583
 30
0.0
 40
0
 41
0
  0
VERTEX
  8
0
 10
0.480903
 20
0.364746
 30
0.0
 40
0
 41
0
  0
VERTEX
  8
0
 10
0.498264
 20
0.367512
 30
0.0
 40
0
 41
0
  0
VERTEX
  8
0
 10
0.5
 20
0.367893
 30
0.0
 40
0
 41
0
  0
VERTEX
  8
0
 10
0.509278
 20
0.361546
 30
0.0
 40
0
 41
0
  0
VERTEX
  8
0
 10
0.560167
 20
0.338758
 30
0.0
 40
0
 41
0
  0
VERTEX
  8
0
 10
0.615072
 20
0.328831
 30
0.0
 40
0
 41
0
  0
VERTEX
  8
0
 10
0.626357
 20
0.328831
 30
0.0
 40
0
 41
0
  0
VERTEX
  8
0
 10
0.631782
 20
0.328831
 30
0.0
 40
0
 41
0
  0
VERTEX
  8
0
 10
0.646322
 20
0.329644
 30
0.0
 40
0
 41
0
  0
VERTEX
  8
0
 10
0.648113
 20
0.329915
 30
0.0
 40
0
 41
0
  0
VERTEX
  8
0
 10
0.657769
 20
0.330783
 30
0.0
 40
0
 41
0
  0
VERTEX
  8
0
 10
0.704428
 20
0.342449
 30
0.0
 40
0
 41
0
  0
VERTEX
  8
0
 10
0.747721
 20
0.363282
 30
0.0
 40
0
 41
0
  0
VERTEX
  8
0
 10
0.755751
 20
0.368761
 30
0.0
 40
0
 41
0
  0
VERTEX
  8
0
 10
0.75906
 20
0.367567
 30
0.0
 40
0
 41
0
  0
VERTEX
  8
0
 10
0.787815
 20
0.361436
 30
0.0
 40
0
 41
0
  0
VERTEX
  8
0
 10
0.797418
 20
0.361436
 30
0.0
 40
0
 41
0
  0
VERTEX
  8
0
 10
0.800293
 20
0.361436
 30
0.0
 40
0
 41
0
  0
VERTEX
  8
0
 10
0.806858
 20
0.361436
 30
0.0
 40
0
 41
0
  0
VERTEX
  8
0
 10
0.809082
 20
0.361436
 30
0.0
 40
0
 41
0
  0
VERTEX
  8
0
 10
0.816678
 20
0.362033
 30
0.0
 40
0
 41
0
  0
VERTEX
  8
0
 10
0.852539
 20
0.373426
 30
0.0
 40
0
 41
0
  0
VERTEX
  8
0
 10
0.883083
 20
0.39529
 30
0.0
 40
0
 41
0
  0
VERTEX
  8
0
 10
0.888129
 20
0.401042
 30
0.0
 40
0
 41
0
  0
VERTEX
  8
0
 10
0.893121
 20
0.406847
 30
0.0
 40
0
 41
0
  0
VERTEX
  8
0
 10
0.910428
 20
0.440267
 30
0.0
 40
0
 41
0
  0
VERTEX
  8
0
 10
0.916558
 20
0.477376
 30
0.0
 40
0
 41
0
  0
VERTEX
  8
0
 10
0.916015
 20
0.485026
 30
0.0
 40
0
 41
0
  0
VERTEX
  8
0
 10
0.915853
 20
0.486546
 30
0.0
 40
0
 41
0
  0
VERTEX
  8
0
 10
0.913194
 20
0.501357
 30
0.0
 40
0
 41
0
  0
VERTEX
  8
0
 10
0.912815
 20
0.502821
 30
0.0
 40
0
 41
0
  0
SEQEND
 8
0
  0
POLYLINE
  8
0
 62
     142
 66
     1
 10
0
 20
0
 30
0.0
 70
     1
 40
0
 41
0
  0
VERTEX
  8
0
 10
0.80664
 20
0.386664
 30
0.0
 40
0
 41
0
  0
VERTEX
  8
0
 10
0.801975
 20
0.386231
 30
0.0
 40
0
 41
0
  0
VERTEX
  8
0
 10
0.756619
 20
0.394965
 30
0.0
 40
0
 41
0
  0
VERTEX
  8
0
 10
0.752496
 20
0.397081
 30
0.0
 40
0
 41
0
  0
VERTEX
  8
0
 10
0.744846
 20
0.39106
 30
0.0
 40
0
 41
0
  0
VERTEX
  8
0
 10
0.702528
 20
0.368164
 30
0.0
 40
0
 41
0
  0
VERTEX
  8
0
 10
0.656033
 20
0.355578
 30
0.0
 40
0
 41
0
  0
VERTEX
  8
0
 10
0.646376
 20
0.35471
 30
0.0
 40
0
 41
0
  0
VERTEX
  8
0
 10
0.644749
 20
0.354546
 30
0.0
 40
0
 41
0
  0
VERTEX
  8
0
 10
0.631619
 20
0.353733
 30
0.0
 40
0
 41
0
  0
VERTEX
  8
0
 10
0.627279
 20
0.353733
 30
0.0
 40
0
 41
0
  0
VERTEX
  8
0
 10
0.611165
 20
0.353733
 30
0.0
 40
0
 41
0
  0
VERTEX
  8
0
 10
0.562989
 20
0.364475
 30
0.0
 40
0
 41
0
  0
VERTEX
  8
0
 10
0.514432
 20
0.388672
 30
0.0
 40
0
 41
0
  0
VERTEX
  8
0
 10
0.505751
 20
0.3954
 30
0.0
 40
0
 41
0
  0
VERTEX
  8
0
 10
0.503364
 20
0.394749
 30
0.0
 40
0
 41
0
  0
VERTEX
  8
0
 10
0.479383
 20
0.390082
 30
0.0
 40
0
 41
0
  0
VERTEX
  8
0
 10
0.476997
 20
0.389811
 30
0.0
 40
0
 41
0
  0
VERTEX
  8
0
 10
0.466037
 20
0.388564
 30
0.0
 40
0
 41
0
  0
VERTEX
  8
0
 10
0.4324
 20
0.391601
 30
0.0
 40
0
 41
0
  0
VERTEX
  8
0
 10
0.391439
 20
0.406467
 30
0.0
 40
0
 41
0
  0
VERTEX
  8
0
 10
0.356717
 20
0.432889
 30
0.0
 40
0
 41
0
  0
VERTEX
  8
0
 10
0.335992
 20
0.459526
 30
0.0
 40
0
 41
0
  0
VERTEX
  8
0
 10
0.331164
 20
0.469401
 30
0.0
 40
0
 41
0
  0
VERTEX
  8
0
 10
0.3259
 20
0.466362
 30
0.0
 40
0
 41
0
  0
VERTEX
  8
0
 10
0.2685
 20
0.448079
 30
0.0
 40
0
 41
0
  0
VERTEX
  8
0
 10
0.262478
 20
0.447483
 30
0.0
 40
0
 41
0
  0
VERTEX
  8
0
 10
0.252171
 20
0.446397
 30
0.0
 40
0
 41
0
  0
VERTEX
  8
0
 10
0.201714
 20
0.452419
 30
0.0
 40
0
 41
0
  0
VERTEX
  8
0
 10
0.155219
 20
0.472982
 30
0.0
 40
0
 41
0
  0
VERTEX
  8
0
 10
0.146972
 20
0.479167
 30
0.0
 40
0
 41
0
  0
VERTEX
  8
0
 10
0.138889
 20
0.485189
 30
0.0
 40
0
 41
0
  0
VERTEX
  8
0
 10
0.108019
 20
0.523492
 30
0.0
 40
0
 41
0
  0
VERTEX
  8
0
 10
0.0912543
 20
0.569715
 30
0.0
 40
0
 41
0
  0
VERTEX
  8
0
 10
0.0903321
 20
0.579699
 30
0.0
 40
0
 41
0
  0
VERTEX
  8
0
 10
0.0903321
 20
0.582519
 30
0.0
 40
0
 41
0
  0
VERTEX
  8
0
 10
0.0897894
 20
0.588758
 30
0.0
 40
0
 41
0
  0
VERTEX
  8
0
 10
0.0897894
 20
0.590821
 30
0.0
 40
0
 41
0
  0
VERTEX
  8
0
 10
0.0841471
 20
0.596192
 30
0.0
 40
0
 41
0
  0
VERTEX
  8
0
 10
0.0628256
 20
0.627929
 30
0.0
 40
0
 41
0
  0
VERTEX
  8
0
 10
0.051161
 20
0.664279
 30
0.0
 40
0
 41
0
  0
VERTEX
  8
0
 10
0.0504015
 20
0.671983
 30
0.0
 40
0
 41
0
  0
VERTEX
  8
0
 10
0.0496419
 20
0.68099
 30
0.0
 40
0
 41
0
  0
VERTEX
  8
0
 10
0.0523546
 20
0.708442
 30
0.0
 40
0
 41
0
  0
VERTEX
  8
0
 10
0.0638021
 20
0.742404
 30
0.0
 40
0
 41
0
  0
VERTEX
  8
0
 10
0.0838217
 20
0.772136
 30
0.0
 40
0
 41
0
  0
VERTEX
  8
0
 10
0.10395
 20
0.790961
 30
0.0
 40
0
 41
0
  0
VERTEX
  8
0
 10
0.111545
 20
0.795844
 30
0.0
 40
0
 41
0
  0
VERTEX
  8
0
 10
0.116591
 20
0.808757
 30
0.0
 40
0
 41
0
  0
VERTEX
  8
0
 10
0.139051
 20
0.844618
 30
0.0
 40
0
 41
0
  0
VERTEX
  8
0
 10
0.17806
 20
0.883356
 30
0.0
 40
0
 41
0
  0
VERTEX
  8
0
 10
0.226129
 20
0.910101
 30
0.0
 40
0
 41
0
  0
VERTEX
  8
0
 10
0.266764
 20
0.921712
 30
0.0
 40
0
 41
0
  0
VERTEX
  8
0
 10
0.280599
 20
0.923014
 30
0.0
 40
0
 41
0
  0
VERTEX
  8
0
 10
0.29221
 20
0.933051
 30
0.0
 40
0
 41
0
  0
VERTEX
  8
0
 10
0.3329
 20
0.956272
 30
0.0
 40
0
 41
0
  0
VERTEX
  8
0
 10
0.391385
 20
0.972928
 30
0.0
 40
0
 41
0
  0
VERTEX
  8
0
 10
0.452149
 20
0.972439
 30
0.0
 40
0
 41
0
  0
VERTEX
  8
0
 10
0.497558
 20
0.960829
 30
0.0
 40
0
 41
0
  0
VERTEX
  8
0
 10
0.511447
 20
0.954264
 30
0.0
 40
0
 41
0
  0
VERTEX
  8
0
 10
0.51606
 20
0.956164
 30
0.0
 40
0
 41
0
  0
VERTEX
  8
0
 10
0.564019
 20
0.968207
 30
0.0
 40
0
 41
0
  0
VERTEX
  8
0
 10
0.568956
 20
0.96875
 30
0.0
 40
0
 41
0
  0
VERTEX
  8
0
 10
0.580729
 20
0.969943
 30
0.0
 40
0
 41
0
  0
VERTEX
  8
0
 10
0.616754
 20
0.968099
 30
0.0
 40
0
 41
0
  0
VERTEX
  8
0
 10
0.662597
 20
0.956597
 30
0.0
 40
0
 41
0
  0
VERTEX
  8
0
 10
0.704536
 20
0.93495
 30
0.0
 40
0
 41
0
  0
VERTEX
  8
0
 10
0.732856
 20
0.912597
 30
0.0
 40
0
 41
0
  0
VERTEX
  8
0
 10
0.74094
 20
0.903863
 30
0.0
 40
0
 41
0
  0
VERTEX
  8
0
 10
0.754719
 20
0.899849
 30
0.0
 40
0
 41
0
  0
VERTEX
  8
0
 10
0.793838
 20
0.879829
 30
0.0
 40
0
 41
0
  0
VERTEX
  8
0
 10
0.835883
 20
0.843371
 30
0.0
 40
0
 41
0
  0
VERTEX
  8
0
 10
0.864908
 20
0.797038
 30
0.0
 40
0
 41
0
  0
VERTEX
  8
0
 10
0.877333
 20
0.756944
 30
0.0
 40
0
 41
0
  0
VERTEX
  8
0
 10
0.878635
 20
0.743326
 30
0.0
 40
0
 41
0
  0
VERTEX
  8
0
 10
0.878797
 20
0.741536
 30
0.0
 40
0
 41
0
  0
VERTEX
  8
0
 10
0.879232
 20
0.723199
 30
0.0
 40
0
 41
0
  0
VERTEX
  8
0
 10
0.879178
 20
0.721354
 30
0.0
 40
0
 41
0
  0
VERTEX
  8
0
 10
0.888183
 20
0.710232
 30
0.0
 40
0
 41
0
  0
VERTEX
  8
0
 10
0.907932
 20
0.670736
 30
0.0
 40
0
 41
0
  0
VERTEX
  8
0
 10
0.918674
 20
0.614908
 30
0.0
 40
0
 41
0
  0
VERTEX
  8
0
 10
0.911187
 20
0.558594
 30
0.0
 40
0
 41
0
  0
VERTEX
  8
0
 10
0.893772
 20
0.518013
 30
0.0
 40
0
 41
0
  0
VERTEX
  8
0
 10
0.885417
 20
0.506347
 30
0.0
 40
0
 41
0
  0
VERTEX
  8
0
 10
0.886176
 20
0.504503
 30
0.0
 40
0
 41
0
  0
VERTEX
  8
0
 10
0.89106
 20
0.484754
 30
0.0
 40
0
 41
0
  0
VERTEX
  8
0
 10
0.891276
 20
0.482693
 30
0.0
 40
0
 41
0
  0
VERTEX
  8
0
 10
0.891764
 20
0.473958
 30
0.0
 40
0
 41
0
  0
VERTEX
  8
0
 10
0.886339
 20
0.447157
 30
0.0
 40
0
 41
0
  0
VERTEX
  8
0
 10
0.868761
 20
0.41721
 30
0.0
 40
0
 41
0
  0
VERTEX
  8
0
 10
0.841308
 20
0.39605
 30
0.0
 40
0
 41
0
  0
VERTEX
  8
0
 10
0.815375
 20
0.387261
 30
0.0
 40
0
 41
0
  0
VERTEX
  8
0
 10
0.80664
 20
0.386664
 30
0.0
 40
0
 41
0
  0
SEQEND
 8
0
  0
POLYLINE
  8
0
 62
     142
 66
     1
 10
0
 20
0
 30
0.0
 70
     1
 40
0
 41
0
  0
VERTEX
  8
0
 10
0.404351
 20
0.853461
 30
0.0
 40
0
 41
0
  0
VERTEX
  8
0
 10
0.404406
 20
0.854656
 30
0.0
 40
0
 41
0
  0
VERTEX
  8
0
 10
0.397299
 20
0.862304
 30
0.0
 40
0
 41
0
  0
VERTEX
  8
0
 10
0.396158
 20
0.862304
 30
0.0
 40
0
 41
0
  0
VERTEX
  8
0
 10
0.394206
 20
0.862304
 30
0.0
 40
0
 41
0
  0
VERTEX
  8
0
 10
0.388456
 20
0.859754
 30
0.0
 40
0
 41
0
  0
VERTEX
  8
0
 10
0.386774
 20
0.855578
 30
0.0
 40
0
 41
0
  0
VERTEX
  8
0
 10
0.386774
 20
0.85471
 30
0.0
 40
0
 41
0
  0
VERTEX
  8
0
 10
0.38661
 20
0.853515
 30
0.0
 40
0
 41
0
  0
VERTEX
  8
0
 10
0.393772
 20
0.845703
 30
0.0
 40
0
 41
0
  0
VERTEX
  8
0
 10
0.395019
 20
0.845703
 30
0.0
 40
0
 41
0
  0
VERTEX
  8
0
 10
0.396104
 20
0.845757
 30
0.0
 40
0
 41
0
  0
VERTEX
  8
0
 10
0.404243
 20
0.851997
 30
0.0
 40
0
 41
0
  0
VERTEX
  8
0
 10
0.404351
 20
0.853461
 30
0.0
 40
0
 41
0
  0
SEQEND
 8
0
  0
POLYLINE
  8
0
 62
     142
 66
     1
 10
0
 20
0
 30
0.0
 70
     1
 40
0
 41
0
  0
VERTEX
  8
0
 10
0.345649
 20
0.784179
 30
0.0
 40
0
 41
0
  0
VERTEX
  8
0
 10
0.345432
 20
0.785807
 30
0.0
 40
0
 41
0
  0
VERTEX
  8
0
 10
0.341308
 20
0.792101
 30
0.0
 40
0
 41
0
  0
VERTEX
  8
0
 10
0.334256
 20
0.794814
 30
0.0
 40
0
 41
0
  0
VERTEX
  8
0
 10
0.332682
 20
0.794596
 30
0.0
 40
0
 41
0
  0
VERTEX
  8
0
 10
0.330621
 20
0.794162
 30
0.0
 40
0
 41
0
  0
VERTEX
  8
0
 10
0.32194
 20
0.783203
 30
0.0
 40
0
 41
0
  0
VERTEX
  8
0
 10
0.322265
 20
0.781467
 30
0.0
 40
0
 41
0
  0
VERTEX
  8
0
 10
0.322319
 20
0.779839
 30
0.0
 40
0
 41
0
  0
VERTEX
  8
0
 10
0.326389
 20
0.773329
 30
0.0
 40
0
 41
0
  0
VERTEX
  8
0
 10
0.33355
 20
0.770779
 30
0.0
 40
0
 41
0
  0
VERTEX
  8
0
 10
0.335232
 20
0.77105
 30
0.0
 40
0
 41
0
  0
VERTEX
  8
0
 10
0.33686
 20
0.771213
 30
0.0
 40
0
 41
0
  0
VERTEX
  8
0
 10
0.343261
 20
0.77539
 30
0.0
 40
0
 41
0
  0
VERTEX
  8
0
 10
0.345865
 20
0.782553
 30
0.0
 40
0
 41
0
  0
VERTEX
  8
0
 10
0.345649
 20
0.784179
 30
0.0
 40
0
 41
0
  0
SEQEND
 8
0
  0
POLYLINE
  8
0
 62
     142
 66
     1
 10
0
 20
0
 30
0.0
 70
     1
 40
0
 41
0
  0
VERTEX
  8
0
 10
0.199599
 20
0.595649
 30
0.0
 40
0
 41
0
  0
VERTEX
  8
0
 10
0.199653
 20
0.593533
 30
0.0
 40
0
 41
0
  0
VERTEX
  8
0
 10
0.204428
 20
0.585015
 30
0.0
 40
0
 41
0
  0
VERTEX
  8
0
 10
0.213325
 20
0.580892
 30
0.0
 40
0
 41
0
  0
VERTEX
  8
0
 10
0.21544
 20
0.580946
 30
0.0
 40
0
 41
0
  0
VERTEX
  8
0
 10
0.217449
 20
0.580675
 30
0.0
 40
0
 41
0
  0
VERTEX
  8
0
 10
0.226563
 20
0.583876
 30
0.0
 40
0
 41
0
  0
VERTEX
  8
0
 10
0.23215
 20
0.591689
 30
0.0
 40
0
 41
0
  0
VERTEX
  8
0
 10
0.232476
 20
0.59375
 30
0.0
 40
0
 41
0
  0
VERTEX
  8
0
 10
0.232585
 20
0.596083
 30
0.0
 40
0
 41
0
  0
VERTEX
  8
0
 10
0.228299
 20
0.606065
 30
0.0
 40
0
 41
0
  0
VERTEX
  8
0
 10
0.219075
 20
0.611708
 30
0.0
 40
0
 41
0
  0
VERTEX
  8
0
 10
0.216797
 20
0.611871
 30
0.0
 40
0
 41
0
  0
VERTEX
  8
0
 10
0.21441
 20
0.612033
 30
0.0
 40
0
 41
0
  0
VERTEX
  8
0
 10
0.20459
 20
0.607531
 30
0.0
 40
0
 41
0
  0
VERTEX
  8
0
 10
0.199544
 20
0.598036
 30
0.0
 40
0
 41
0
  0
VERTEX
  8
0
 10
0.199599
 20
0.595649
 30
0.0
 40
0
 41
0
  0
SEQEND
 8
0
  0
POLYLINE
  8
0
 62
     142
 66
     1
 10
0
 20
0
 30
0.0
 70
     1
 40
0
 41
0
  0
VERTEX
  8
0
 10
0.15625
 20
0.668349
 30
0.0
 40
0
 41
0
  0
VERTEX
  8
0
 10
0.156901
 20
0.668078
 30
0.0
 40
0
 41
0
  0
VERTEX
  8
0
 10
0.163792
 20
0.668078
 30
0.0
 40
0
 41
0
  0
VERTEX
  8
0
 10
0.164497
 20
0.668349
 30
0.0
 40
0
 41
0
  0
VERTEX
  8
0
 10
0.165799
 20
0.668837
 30
0.0
 40
0
 41
0
  0
VERTEX
  8
0
 10
0.169868
 20
0.673882
 30
0.0
 40
0
 41
0
  0
VERTEX
  8
0
 10
0.16976
 20
0.680393
 30
0.0
 40
0
 41
0
  0
VERTEX
  8
0
 10
0.169054
 20
0.681586
 30
0.0
 40
0
 41
0
  0
VERTEX
  8
0
 10
0.168674
 20
0.682997
 30
0.0
 40
0
 41
0
  0
VERTEX
  8
0
 10
0.164008
 20
0.687554
 30
0.0
 40
0
 41
0
  0
VERTEX
  8
0
 10
0.157553
 20
0.688151
 30
0.0
 40
0
 41
0
  0
VERTEX
  8
0
 10
0.15625
 20
0.6875
 30
0.0
 40
0
 41
0
  0
VERTEX
  8
0
 10
0.154893
 20
0.687067
 30
0.0
 40
0
 41
0
  0
VERTEX
  8
0
 10
0.149903
 20
0.675672
 30
0.0
 40
0
 41
0
  0
VERTEX
  8
0
 10
0.150499
 20
0.674371
 30
0.0
 40
0
 41
0
  0
VERTEX
  8
0
 10
0.150717
 20
0.673719
 30
0.0
 40
0
 41
0
  0
VERTEX
  8
0
 10
0.155544
 20
0.668674
 30
0.0
 40
0
 41
0
  0
VERTEX
  8
0
 10
0.15625
 20
0.668349
 30
0.0
 40
0
 41
0
  0
SEQEND
 8
0
  0
POLYLINE
  8
0
 62
     142
 66
     1
 10
0
 20
0
 30
0.0
 70
     1
 40
0
 41
0
  0
VERTEX
  8
0
 10
0.241863
 20
0.742188
 30
0.0
 40
0
 41
0
  0
VERTEX
  8
0
 10
0.242458
 20
0.742731
 30
0.0
 40
0
 41
0
  0
VERTEX
  8
0
 10
0.245768
 20
0.749892
 30
0.0
 40
0
 41
0
  0
VERTEX
  8
0
 10
0.245822
 20
0.750706
 30
0.0
 40
0
 41
0
  0
VERTEX
  8
0
 10
0.246094
 20
0.752333
 30
0.0
 40
0
 41
0
  0
VERTEX
  8
0
 10
0.243869
 20
0.759494
 30
0.0
 40
0
 41
0
  0
VERTEX
  8
0
 10
0.237739
 20
0.763781
 30
0.0
 40
0
 41
0
  0
VERTEX
  8
0
 10
0.236165
 20
0.763943
 30
0.0
 40
0
 41
0
  0
VERTEX
  8
0
 10
0.233942
 20
0.763943
 30
0.0
 40
0
 41
0
  0
VERTEX
  8
0
 10
0.231065
 20
0.763943
 30
0.0
 40
0
 41
0
  0
VERTEX
  8
0
 10
0.222711
 20
0.755046
 30
0.0
 40
0
 41
0
  0
VERTEX
  8
0
 10
0.222601
 20
0.753526
 30
0.0
 40
0
 41
0
  0
VERTEX
  8
0
 10
0.222222
 20
0.751844
 30
0.0
 40
0
 41
0
  0
VERTEX
  8
0
 10
0.22461
 20
0.744249
 30
0.0
 40
0
 41
0
  0
VERTEX
  8
0
 10
0.231282
 20
0.739854
 30
0.0
 40
0
 41
0
  0
VERTEX
  8
0
 10
0.233018
 20
0.739692
 30
0.0
 40
0
 41
0
  0
VERTEX
  8
0
 10
0.233778
 20
0.739583
 30
0.0
 40
0
 41
0
  0
VERTEX
  8
0
 10
0.241211
 20
0.741699
 30
0.0
 40
0
 41
0
  0
VERTEX
  8
0
 10
0.241863
 20
0.742188
 30
0.0
 40
0
 41
0
  0
SEQEND
 8
0
  0
ENDSEC
  0
EOF
